<?xml version="1.0" encoding="UTF-8"?>
<svg version="1.1" xmlns="http://www.w3.org/2000/svg" width="5001" height="5001">
<path d="M0 0 C1.10036596 0.93321123 2.19928789 1.86812525 3.29762268 2.8037262 C3.90974389 3.32416787 4.5218651 3.84460955 5.15253544 4.38082218 C8.0774584 6.94431947 10.79899008 9.69541761 13.52734375 12.46484375 C14.11995499 13.06124161 14.71256622 13.65763947 15.32313538 14.27210999 C17.82533674 16.79045153 20.3214814 19.31476382 22.81811523 21.83862305 C24.65655481 23.69532925 26.49813259 25.54888353 28.33984375 27.40234375 C28.88905991 27.95985825 29.43827606 28.51737274 30.00413513 29.09178162 C32.81177913 31.91668383 35.6763361 34.61242085 38.70265198 37.20265198 C43.02639054 40.97079232 47.08564187 44.95845714 51.125 49.02734375 C51.89360352 49.79740753 52.66220703 50.56747131 53.45410156 51.36087036 C55.10952005 53.02007108 56.76378314 54.68042521 58.41699219 56.34182739 C61.03861386 58.97630318 63.66342578 61.60756325 66.2890625 64.23803711 C72.33474534 70.29607016 78.37574831 76.35876204 84.41650391 82.42170715 C90.40116545 88.42823831 96.38784325 94.43274659 102.37792969 100.43386841 C104.95454318 103.01692943 107.52810829 105.603001 110.1015625 108.18920898 C111.69255894 109.78384047 113.28369737 111.37833031 114.875 112.97265625 C115.93509277 114.0404985 115.93509277 114.0404985 117.01660156 115.12991333 C120.25373249 118.36738356 123.5276678 121.50264376 126.9942627 124.4942627 C131.26507137 128.18067916 135.24323639 132.11691196 139.21679688 136.11914062 C140.3843325 137.28886665 140.3843325 137.28886665 141.57545471 138.48222351 C143.25215386 140.16270537 144.92769761 141.84434068 146.60218811 143.52702332 C149.25741578 146.19510293 151.91583197 148.85996889 154.57507324 151.52404785 C160.69816102 157.65948705 166.81656876 163.79958365 172.93473053 169.93993378 C178.99592336 176.02299455 185.05913114 182.10403348 191.12574768 188.1816864 C193.73559931 190.79798651 196.34240327 193.41729699 198.94909668 196.03674316 C200.56031614 197.6515976 202.17167754 199.26631043 203.78320312 200.88085938 C204.49928238 201.60210495 205.21536163 202.32335052 205.95314026 203.06645203 C209.84356071 206.95727521 213.84195789 210.63842842 218.0066452 214.23249054 C221.52373126 217.35109386 224.81439969 220.69254232 228.125 224.02734375 C228.89360352 224.79740753 229.66220703 225.56747131 230.45410156 226.36087036 C232.10952005 228.02007108 233.76378314 229.68042521 235.41699219 231.34182739 C238.03861386 233.97630318 240.66342578 236.60756325 243.2890625 239.23803711 C249.33474534 245.29607016 255.37574831 251.35876204 261.41650391 257.42170715 C267.40116545 263.42823831 273.38784325 269.43274659 279.37792969 275.43386841 C281.95454318 278.01692943 284.52810829 280.603001 287.1015625 283.18920898 C288.69255894 284.78384047 290.28369737 286.37833031 291.875 287.97265625 C292.93509277 289.0404985 292.93509277 289.0404985 294.01660156 290.12991333 C297.25373249 293.36738356 300.5276678 296.50264376 303.9942627 299.4942627 C308.26507137 303.18067916 312.24323639 307.11691196 316.21679688 311.11914062 C317.3843325 312.28886665 317.3843325 312.28886665 318.57545471 313.48222351 C320.25215386 315.16270537 321.92769761 316.84434068 323.60218811 318.52702332 C326.25741578 321.19510293 328.91583197 323.85996889 331.57507324 326.52404785 C337.69816102 332.65948705 343.81656876 338.79958365 349.93473053 344.93993378 C355.99592336 351.02299455 362.05913114 357.10403348 368.12574768 363.1816864 C370.73559931 365.79798651 373.34240327 368.41729699 375.94909668 371.03674316 C377.56031614 372.6515976 379.17167754 374.26631043 380.78320312 375.88085938 C381.85732201 376.96272774 381.85732201 376.96272774 382.95314026 378.06645203 C386.84356071 381.95727521 390.84195789 385.63842842 395.0066452 389.23249054 C398.52373126 392.35109386 401.81439969 395.69254232 405.125 399.02734375 C405.89360352 399.79740753 406.66220703 400.56747131 407.45410156 401.36087036 C409.10952005 403.02007108 410.76378314 404.68042521 412.41699219 406.34182739 C415.03861386 408.97630318 417.66342578 411.60756325 420.2890625 414.23803711 C426.33474534 420.29607016 432.37574831 426.35876204 438.41650391 432.42170715 C444.40116545 438.42823831 450.38784325 444.43274659 456.37792969 450.43386841 C458.95454318 453.01692943 461.52810829 455.603001 464.1015625 458.18920898 C465.69255894 459.78384047 467.28369737 461.37833031 468.875 462.97265625 C469.93509277 464.0404985 469.93509277 464.0404985 471.01660156 465.12991333 C474.25373249 468.36738356 477.5276678 471.50264376 480.9942627 474.4942627 C485.26507137 478.18067916 489.24323639 482.11691196 493.21679688 486.11914062 C494.3843325 487.28886665 494.3843325 487.28886665 495.57545471 488.48222351 C497.25215386 490.16270537 498.92769761 491.84434068 500.60218811 493.52702332 C503.25741578 496.19510293 505.91583197 498.85996889 508.57507324 501.52404785 C514.69816102 507.65948705 520.81656876 513.79958365 526.93473053 519.93993378 C532.99592336 526.02299455 539.05913114 532.10403348 545.12574768 538.1816864 C547.73559931 540.79798651 550.34240327 543.41729699 552.94909668 546.03674316 C554.56031614 547.6515976 556.17167754 549.26631043 557.78320312 550.88085938 C558.49928238 551.60210495 559.21536163 552.32335052 559.95314026 553.06645203 C563.84356071 556.95727521 567.84195789 560.63842842 572.0066452 564.23249054 C575.52373126 567.35109386 578.81439969 570.69254232 582.125 574.02734375 C582.89360352 574.79740753 583.66220703 575.56747131 584.45410156 576.36087036 C586.10952005 578.02007108 587.76378314 579.68042521 589.41699219 581.34182739 C592.03861386 583.97630318 594.66342578 586.60756325 597.2890625 589.23803711 C603.33474534 595.29607016 609.37574831 601.35876204 615.41650391 607.42170715 C621.40116545 613.42823831 627.38784325 619.43274659 633.37792969 625.43386841 C635.95454318 628.01692943 638.52810829 630.603001 641.1015625 633.18920898 C642.69255894 634.78384047 644.28369737 636.37833031 645.875 637.97265625 C646.58172852 638.68455109 647.28845703 639.39644592 648.01660156 640.12991333 C648.68916992 640.80255219 649.36173828 641.47519104 650.0546875 642.16821289 C650.62687012 642.74261612 651.19905273 643.31701935 651.78857422 643.90882874 C653.8316478 645.94141589 653.8316478 645.94141589 655.6657871 647.17130029 C660.80886959 651.0348366 663.61383356 655.4433415 666.65755653 660.98069191 C682.64452879 689.75113918 706.35450921 719.72155448 739 730 C768.59528166 737.61742071 801.772061 733.93059544 831.87255859 731.99365234 C832.97896147 731.92341506 834.08536435 731.85317779 835.22529459 731.7808121 C861.44077578 730.10420558 887.60626591 727.91431807 913.76772722 725.55211382 C945.49232804 722.69071754 977.23136379 720.61584017 1009.03515518 718.86248214 C1011.04141906 718.75183432 1013.04766022 718.64078206 1015.05389686 718.52964156 C1030.66823309 717.66533974 1046.28384251 716.8261896 1061.90043338 716.00369584 C1071.60221545 715.49266812 1081.30337238 714.97125465 1091.00405967 714.43985121 C1161.34843062 710.58668118 1231.72026496 707.08258301 1483.43359375 704.8671875 C1484.12086253 704.88363642 1484.8081313 704.90008534 1485.5162264 704.91703271 C1682.58502196 709.65302118 1682.58502196 709.65302118 1953.66455078 885.00634766 C1971.83364606 904.16458378 1988.92860299 924.26508417 2005.81431617 944.55235924 C2007.98479762 947.1566965 2010.16216395 949.75523625 2012.33929544 952.35401443 C2065.97524192 1016.40200848 2114.48657856 1083.202301 2157.03708553 1155.14865875 C2157.44529287 1155.83721835 2157.85350021 1156.52577795 2158.27407747 1157.23520299 C2161 1161.8783201 2161 1161.8783201 2161 1163 C1641.91 1163.33 1122.82 1163.66 588 1164 C606.59806322 1182.92962476 606.59806322 1182.92962476 626 1201 C627.49763545 1202.42304401 628.98045275 1203.86207963 630.43884277 1205.32531738 C631.22079514 1206.10734024 632.0027475 1206.8893631 632.80839539 1207.69508362 C633.6366835 1208.52853806 634.46497162 1209.36199249 635.31835938 1210.22070312 C636.69279557 1211.59738082 638.06723189 1212.97405838 639.44167328 1214.3507309 C640.90358715 1215.81599357 642.36424494 1217.28249767 643.82453918 1218.74937439 C646.88262865 1221.82110493 649.94463495 1224.88891148 653.00720215 1227.95617676 C660.05933369 1235.02029742 667.10641857 1242.08944549 674.15345001 1249.15865326 C680.61774599 1255.64318682 687.08313102 1262.12662484 693.55258989 1268.60600805 C696.59004316 1271.64841039 699.62504949 1274.6932256 702.65813446 1277.7399826 C704.09390824 1279.18145315 705.53084977 1280.62174755 706.9683075 1282.0615387 C708.71133462 1283.80740844 710.45258746 1285.55505237 712.19160461 1287.30491638 C715.70532944 1290.81895798 719.23342612 1294.25691709 723 1297.5 C727.66526722 1301.51687287 731.98056694 1305.85585437 736.31835938 1310.22070312 C737.69279557 1311.59738082 739.06723189 1312.97405838 740.44167328 1314.3507309 C741.90358715 1315.81599357 743.36424494 1317.28249767 744.82453918 1318.74937439 C747.88262865 1321.82110493 750.94463495 1324.88891148 754.00720215 1327.95617676 C761.05933369 1335.02029742 768.10641857 1342.08944549 775.15345001 1349.15865326 C781.61774599 1355.64318682 788.08313102 1362.12662484 794.55258989 1368.60600805 C797.59004316 1371.64841039 800.62504949 1374.6932256 803.65813446 1377.7399826 C805.09390824 1379.18145315 806.53084977 1380.62174755 807.9683075 1382.0615387 C809.71133462 1383.80740844 811.45258746 1385.55505237 813.19160461 1387.30491638 C816.70532944 1390.81895798 820.23342612 1394.25691709 824 1397.5 C828.66526722 1401.51687287 832.98056694 1405.85585437 837.31835938 1410.22070312 C838.69279557 1411.59738082 840.06723189 1412.97405838 841.44167328 1414.3507309 C842.90358715 1415.81599357 844.36424494 1417.28249767 845.82453918 1418.74937439 C848.88262865 1421.82110493 851.94463495 1424.88891148 855.00720215 1427.95617676 C862.05933369 1435.02029742 869.10641857 1442.08944549 876.15345001 1449.15865326 C882.61774599 1455.64318682 889.08313102 1462.12662484 895.55258989 1468.60600805 C898.59004316 1471.64841039 901.62504949 1474.6932256 904.65813446 1477.7399826 C906.09390824 1479.18145315 907.53084977 1480.62174755 908.9683075 1482.0615387 C910.71133462 1483.80740844 912.45258746 1485.55505237 914.19160461 1487.30491638 C917.70532944 1490.81895798 921.23342612 1494.25691709 925 1497.5 C929.66526722 1501.51687287 933.98056694 1505.85585437 938.31835938 1510.22070312 C939.69279557 1511.59738082 941.06723189 1512.97405838 942.44167328 1514.3507309 C943.90358715 1515.81599357 945.36424494 1517.28249767 946.82453918 1518.74937439 C949.88262865 1521.82110493 952.94463495 1524.88891148 956.00720215 1527.95617676 C963.05933369 1535.02029742 970.10641857 1542.08944549 977.15345001 1549.15865326 C983.61774599 1555.64318682 990.08313102 1562.12662484 996.55258989 1568.60600805 C999.59004316 1571.64841039 1002.62504949 1574.6932256 1005.65813446 1577.7399826 C1007.09390824 1579.18145315 1008.53084977 1580.62174755 1009.9683075 1582.0615387 C1011.71133462 1583.80740844 1013.45258746 1585.55505237 1015.19160461 1587.30491638 C1018.70343488 1590.81706325 1022.22938974 1594.25331099 1025.9942627 1597.4942627 C1030.69419667 1601.54102969 1035.03997968 1605.91536941 1039.41015625 1610.3125 C1040.79956386 1611.70414911 1042.1889716 1613.09579809 1043.5783844 1614.48744202 C1045.05645966 1615.96886643 1046.53327903 1617.45153224 1048.00973511 1618.93457031 C1051.10143051 1622.03990481 1054.19704101 1625.14131714 1057.29321289 1628.2421875 C1064.42274921 1635.38371385 1071.54723946 1642.53026724 1078.67167664 1649.67687988 C1085.20688662 1656.23232641 1091.74318503 1662.78667809 1098.28355694 1669.3369751 C1101.35446138 1672.4128292 1104.42291891 1675.49109653 1107.48945618 1678.57130432 C1108.94100529 1680.02854961 1110.3937217 1681.48461929 1111.84695435 1682.94018555 C1113.60927847 1684.70535279 1115.36982779 1686.47229476 1117.12814331 1688.24145508 C1120.5676053 1691.68122385 1124.00587567 1695.05610327 1127.71313477 1698.20703125 C1128.31078357 1698.74796634 1128.90843237 1699.28890142 1129.52419174 1699.84622848 C1130.86087095 1701.00904131 1132.21255298 1702.15878352 1133.63191654 1703.21909107 C1140.0942516 1708.05845996 1145.8420393 1713.03111069 1147.2911098 1721.29483771 C1147.94467244 1727.80459631 1147.80112848 1734.30895653 1147.68356323 1740.84152222 C1147.689674 1743.3697547 1147.70194267 1745.89797849 1147.71981156 1748.42615521 C1147.74452884 1753.90776463 1147.7260875 1759.38655958 1147.66887665 1764.86787796 C1147.58405322 1773.01749756 1147.58020489 1781.16578188 1147.59246449 1789.31576247 C1147.61082076 1803.02749393 1147.56422815 1816.73827791 1147.48022079 1830.44973373 C1147.39729438 1844.0196388 1147.34348015 1857.58914896 1147.3282814 1871.15930557 C1147.32731905 1872.00401475 1147.32635669 1872.84872393 1147.32536518 1873.71903036 C1147.32062831 1878.00913198 1147.31640901 1882.29923395 1147.31238891 1886.58933629 C1147.28300711 1916.95191572 1147.18875188 1947.3139801 1147.05615234 1977.67626953 C1146.9275075 2007.16712715 1146.828368 2036.65784366 1146.76904297 2066.14892578 C1146.76628092 2067.51322489 1146.76628092 2067.51322489 1146.76346307 2068.9050856 C1146.7450033 2078.03924383 1146.72714198 2087.17340316 1146.70971904 2096.30756343 C1146.67421499 2114.91380021 1146.63471747 2133.52002781 1146.59280396 2152.12625122 C1146.5908819 2152.9816774 1146.58895984 2153.83710359 1146.58697953 2154.71845178 C1146.45823707 2211.81251688 1146.23612027 2268.90629058 1146 2326 C1144.89076755 2325.05702636 1143.78265367 2324.11273685 1142.6750021 2323.16790676 C1142.05779936 2322.64219945 1141.44059663 2322.11649215 1140.80469078 2321.57485431 C1138.24838904 2319.34411048 1135.85869463 2316.97023838 1133.46704102 2314.56469727 C1132.96192993 2314.05812592 1132.45681885 2313.55155457 1131.93640137 2313.02963257 C1130.85281515 2311.94227585 1129.77038416 2310.85376686 1128.68902779 2309.76419258 C1126.97064822 2308.03289827 1125.24903223 2306.30487944 1123.52659607 2304.57762146 C1119.25082038 2300.28856737 1114.98052569 2295.99406982 1110.71008301 2291.69970703 C1107.09308119 2288.06286441 1103.4739629 2284.42815237 1099.85209465 2280.79615593 C1098.16847413 2279.10612479 1096.48793105 2277.41307578 1094.80751038 2275.71986389 C1093.75927565 2274.66799129 1092.71089725 2273.61626184 1091.66235352 2272.56469727 C1090.75969254 2271.65679947 1089.85703156 2270.74890167 1088.92701721 2269.81349182 C1086.7450299 2267.66987405 1084.47550248 2265.65760905 1082.15965271 2263.65965271 C1077.8437263 2259.91508908 1073.80765262 2255.9343442 1069.78320312 2251.88085938 C1069.00484604 2251.10104202 1068.22648895 2250.32122467 1067.42454529 2249.51777649 C1065.74784614 2247.83729463 1064.07230239 2246.15565932 1062.39781189 2244.47297668 C1059.74258422 2241.80489707 1057.08416803 2239.14003111 1054.42492676 2236.47595215 C1048.30183898 2230.34051295 1042.18343124 2224.20041635 1036.06526947 2218.06006622 C1030.00407664 2211.97700545 1023.94086886 2205.89596652 1017.87425232 2199.8183136 C1015.26440069 2197.20201349 1012.65759673 2194.58270301 1010.05090332 2191.96325684 C1008.43968386 2190.3484024 1006.82832246 2188.73368957 1005.21679688 2187.11914062 C1004.50071762 2186.39789505 1003.78463837 2185.67664948 1003.04685974 2184.93354797 C999.15643929 2181.04272479 995.15804211 2177.36157158 990.9933548 2173.76750946 C987.47626874 2170.64890614 984.18560031 2167.30745768 980.875 2163.97265625 C979.72209473 2162.81756058 979.72209473 2162.81756058 978.54589844 2161.63912964 C976.89047995 2159.97992892 975.23621686 2158.31957479 973.58300781 2156.65817261 C970.96138614 2154.02369682 968.33657422 2151.39243675 965.7109375 2148.76196289 C959.66525466 2142.70392984 953.62425169 2136.64123796 947.58349609 2130.57829285 C941.59883455 2124.57176169 935.61215675 2118.56725341 929.62207031 2112.56613159 C927.04545682 2109.98307057 924.47189171 2107.396999 921.8984375 2104.81079102 C920.30744106 2103.21615953 918.71630263 2101.62166969 917.125 2100.02734375 C916.41827148 2099.31544891 915.71154297 2098.60355408 914.98339844 2097.87008667 C911.74626751 2094.63261644 908.4723322 2091.49735624 905.0057373 2088.5057373 C900.73492863 2084.81932084 896.75676361 2080.88308804 892.78320312 2076.88085938 C892.00484604 2076.10104202 891.22648895 2075.32122467 890.42454529 2074.51777649 C888.74784614 2072.83729463 887.07230239 2071.15565932 885.39781189 2069.47297668 C882.74258422 2066.80489707 880.08416803 2064.14003111 877.42492676 2061.47595215 C871.30183898 2055.34051295 865.18343124 2049.20041635 859.06526947 2043.06006622 C853.00407664 2036.97700545 846.94086886 2030.89596652 840.87425232 2024.8183136 C838.26440069 2022.20201349 835.65759673 2019.58270301 833.05090332 2016.96325684 C831.43968386 2015.3484024 829.82832246 2013.73368957 828.21679688 2012.11914062 C827.50071762 2011.39789505 826.78463837 2010.67664948 826.04685974 2009.93354797 C822.15643929 2006.04272479 818.15804211 2002.36157158 813.9933548 1998.76750946 C810.47626874 1995.64890614 807.18560031 1992.30745768 803.875 1988.97265625 C803.10639648 1988.20259247 802.33779297 1987.43252869 801.54589844 1986.63912964 C799.89047995 1984.97992892 798.23621686 1983.31957479 796.58300781 1981.65817261 C793.96138614 1979.02369682 791.33657422 1976.39243675 788.7109375 1973.76196289 C782.66525466 1967.70392984 776.62425169 1961.64123796 770.58349609 1955.57829285 C764.59883455 1949.57176169 758.61215675 1943.56725341 752.62207031 1937.56613159 C750.04545682 1934.98307057 747.47189171 1932.396999 744.8984375 1929.81079102 C743.30744106 1928.21615953 741.71630263 1926.62166969 740.125 1925.02734375 C739.41827148 1924.31544891 738.71154297 1923.60355408 737.98339844 1922.87008667 C734.74626751 1919.63261644 731.4723322 1916.49735624 728.0057373 1913.5057373 C723.73492863 1909.81932084 719.75676361 1905.88308804 715.78320312 1901.88085938 C714.6156675 1900.71113335 714.6156675 1900.71113335 713.42454529 1899.51777649 C711.74784614 1897.83729463 710.07230239 1896.15565932 708.39781189 1894.47297668 C705.74258422 1891.80489707 703.08416803 1889.14003111 700.42492676 1886.47595215 C694.30183898 1880.34051295 688.18343124 1874.20041635 682.06526947 1868.06006622 C676.00407664 1861.97700545 669.94086886 1855.89596652 663.87425232 1849.8183136 C661.26440069 1847.20201349 658.65759673 1844.58270301 656.05090332 1841.96325684 C654.43968386 1840.3484024 652.82832246 1838.73368957 651.21679688 1837.11914062 C650.50071762 1836.39789505 649.78463837 1835.67664948 649.04685974 1834.93354797 C645.15643929 1831.04272479 641.15804211 1827.36157158 636.9933548 1823.76750946 C633.47626874 1820.64890614 630.18560031 1817.30745768 626.875 1813.97265625 C626.10639648 1813.20259247 625.33779297 1812.43252869 624.54589844 1811.63912964 C622.89047995 1809.97992892 621.23621686 1808.31957479 619.58300781 1806.65817261 C616.96138614 1804.02369682 614.33657422 1801.39243675 611.7109375 1798.76196289 C605.66525466 1792.70392984 599.62425169 1786.64123796 593.58349609 1780.57829285 C587.59883455 1774.57176169 581.61215675 1768.56725341 575.62207031 1762.56613159 C573.04545682 1759.98307057 570.47189171 1757.396999 567.8984375 1754.81079102 C566.30744106 1753.21615953 564.71630263 1751.62166969 563.125 1750.02734375 C562.41827148 1749.31544891 561.71154297 1748.60355408 560.98339844 1747.87008667 C557.74626751 1744.63261644 554.4723322 1741.49735624 551.0057373 1738.5057373 C546.73492863 1734.81932084 542.75676361 1730.88308804 538.78320312 1726.88085938 C537.6156675 1725.71113335 537.6156675 1725.71113335 536.42454529 1724.51777649 C534.74784614 1722.83729463 533.07230239 1721.15565932 531.39781189 1719.47297668 C528.74258422 1716.80489707 526.08416803 1714.14003111 523.42492676 1711.47595215 C517.30183898 1705.34051295 511.18343124 1699.20041635 505.06526947 1693.06006622 C499.00407664 1686.97700545 492.94086886 1680.89596652 486.87425232 1674.8183136 C484.26440069 1672.20201349 481.65759673 1669.58270301 479.05090332 1666.96325684 C477.43968386 1665.3484024 475.82832246 1663.73368957 474.21679688 1662.11914062 C473.50071762 1661.39789505 472.78463837 1660.67664948 472.04685974 1659.93354797 C471.36587723 1659.25249496 470.68489471 1658.57144196 469.98327637 1657.86975098 C469.11394093 1656.99708462 469.11394093 1656.99708462 468.22704315 1656.10678864 C466.14322309 1654.0752767 466.14322309 1654.0752767 464.34105425 1652.68043749 C459.17605882 1648.48258118 455.48021954 1643.79861392 451.61236534 1638.40762708 C438.53260095 1620.26004974 420.85264119 1597.80527636 397.67461872 1593.56431675 C374.45155 1590.09306929 350.01647401 1593.55242757 326.84574697 1595.9828957 C315.69164235 1597.13724848 304.51858384 1597.94492648 293.33330444 1598.72930103 C287.44266435 1599.14262575 281.55287286 1599.56750534 275.66324717 1599.99501711 C274.4757524 1600.08118709 273.28825762 1600.16735708 272.06477816 1600.25613827 C263.47604863 1600.88584781 254.89279938 1601.57132799 246.31063026 1602.28457016 C245.07256126 1602.3873943 243.83449226 1602.49021845 242.55890602 1602.59615848 C241.31559273 1602.69942136 240.07227944 1602.80268423 238.79129 1602.90907628 C205.01808378 1605.71184893 171.22840073 1607.85574046 137.38887024 1609.67573547 C136.72585282 1609.71144434 136.0628354 1609.74715321 135.37972655 1609.78394416 C116.30120163 1610.81069874 97.22027982 1611.78782111 78.1377909 1612.73783838 C73.2663647 1612.98036242 68.39502654 1613.2245986 63.52372016 1613.46951641 C20.7750814 1615.616725 -21.98029108 1617.57114664 -64.75 1619.25 C-65.45960002 1619.2778597 -66.16920004 1619.3057194 -66.90030309 1619.33442334 C-137.22020436 1622.08927944 -207.56152497 1624.00002091 -336.51953125 1622.04296875 C-337.20905277 1622.02425941 -337.89857429 1622.00555006 -338.6089904 1621.98627377 C-533.98628641 1616.65497895 -533.98628641 1616.65497895 -809.50694763 1439.10317115 C-826.98794576 1420.52618122 -843.49982525 1401.10744902 -859.81546083 1381.50837466 C-861.98463076 1378.90613615 -864.16077404 1376.30977227 -866.33672588 1373.71320454 C-919.96262385 1309.69830673 -968.55006026 1242.92720573 -1011.03708553 1170.97438908 C-1011.64939649 1169.94549025 -1011.64939649 1169.94549025 -1012.27407737 1168.89580558 C-1015 1164.23585314 -1015 1164.23585314 -1015 1162 C-236.86 1161.505 -236.86 1161.505 557 1161 C524.21272468 1127.23817827 524.21272468 1127.23817827 490 1095 C488.50236455 1093.57695599 487.01954725 1092.13792037 485.56115723 1090.67468262 C484.77920486 1089.89265976 483.9972525 1089.1106369 483.19160461 1088.30491638 C482.3633165 1087.47146194 481.53502838 1086.63800751 480.68164062 1085.77929688 C479.30720443 1084.40261918 477.93276811 1083.02594162 476.55832672 1081.6492691 C475.09641285 1080.18400643 473.63575506 1078.71750233 472.17546082 1077.25062561 C469.11737135 1074.17889507 466.05536505 1071.11108852 462.99279785 1068.04382324 C455.94066631 1060.97970258 448.89358143 1053.91055451 441.84654999 1046.84134674 C435.38225401 1040.35681318 428.91686898 1033.87337516 422.44741011 1027.39399195 C419.40995684 1024.35158961 416.37495051 1021.3067744 413.34186554 1018.2600174 C411.90609176 1016.81854685 410.46915023 1015.37825245 409.0316925 1013.9384613 C407.28866538 1012.19259156 405.54741254 1010.44494763 403.80839539 1008.69508362 C400.29467056 1005.18104202 396.76657388 1001.74308291 393 998.5 C388.33473278 994.48312713 384.01943306 990.14414563 379.68164062 985.77929688 C378.30720443 984.40261918 376.93276811 983.02594162 375.55832672 981.6492691 C374.09641285 980.18400643 372.63575506 978.71750233 371.17546082 977.25062561 C368.11737135 974.17889507 365.05536505 971.11108852 361.99279785 968.04382324 C354.94066631 960.97970258 347.89358143 953.91055451 340.84654999 946.84134674 C334.38225401 940.35681318 327.91686898 933.87337516 321.44741011 927.39399195 C318.40995684 924.35158961 315.37495051 921.3067744 312.34186554 918.2600174 C310.90609176 916.81854685 309.46915023 915.37825245 308.0316925 913.9384613 C306.28866538 912.19259156 304.54741254 910.44494763 302.80839539 908.69508362 C299.29467056 905.18104202 295.76657388 901.74308291 292 898.5 C287.33473278 894.48312713 283.01943306 890.14414563 278.68164062 885.77929688 C277.30720443 884.40261918 275.93276811 883.02594162 274.55832672 881.6492691 C273.09641285 880.18400643 271.63575506 878.71750233 270.17546082 877.25062561 C267.11737135 874.17889507 264.05536505 871.11108852 260.99279785 868.04382324 C253.94066631 860.97970258 246.89358143 853.91055451 239.84654999 846.84134674 C233.38225401 840.35681318 226.91686898 833.87337516 220.44741011 827.39399195 C217.40995684 824.35158961 214.37495051 821.3067744 211.34186554 818.2600174 C209.90609176 816.81854685 208.46915023 815.37825245 207.0316925 813.9384613 C205.28866538 812.19259156 203.54741254 810.44494763 201.80839539 808.69508362 C198.29467056 805.18104202 194.76657388 801.74308291 191 798.5 C186.33473278 794.48312713 182.01943306 790.14414563 177.68164062 785.77929688 C176.30720443 784.40261918 174.93276811 783.02594162 173.55832672 781.6492691 C172.09641285 780.18400643 170.63575506 778.71750233 169.17546082 777.25062561 C166.11737135 774.17889507 163.05536505 771.11108852 159.99279785 768.04382324 C152.94066631 760.97970258 145.89358143 753.91055451 138.84654999 746.84134674 C132.38225401 740.35681318 125.91686898 733.87337516 119.44741011 727.39399195 C116.40995684 724.35158961 113.37495051 721.3067744 110.34186554 718.2600174 C108.90609176 716.81854685 107.46915023 715.37825245 106.0316925 713.9384613 C104.28866538 712.19259156 102.54741254 710.44494763 100.80839539 708.69508362 C100.02644302 707.91306076 99.24449066 707.1310379 98.43884277 706.32531738 C97.43676914 705.31991283 97.43676914 705.31991283 96.4144516 704.29419708 C90.38602207 698.56602037 84.03978543 693.46015984 77.33054161 688.55813408 C41.33115739 661.73391732 -0.18243619 628.77006191 -7.11785258 581.79165857 C-8.85786631 569.01094516 -9.51815656 556.22007442 -9.76318359 543.33251953 C-9.77779897 542.59400076 -9.79241435 541.85548198 -9.80747262 541.09458385 C-10.17112219 521.45237385 -9.66019824 501.85448882 -8.90425601 482.227848 C-8.46286962 470.57176469 -8.24029037 458.92569254 -8.1594429 447.26171494 C-8.15353129 446.42334136 -8.14761968 445.58496778 -8.14152894 444.72118894 C-8.11241667 440.46038562 -8.08650348 436.1995692 -8.0618176 431.93873821 C-7.88299311 402.05511419 -7.30898455 372.19165579 -6.48779297 342.31933594 C-5.69292131 313.37020341 -5.08629973 284.42666643 -4.72412109 255.46875 C-4.70715422 254.1208968 -4.70715422 254.1208968 -4.68984458 252.74581424 C-4.57641411 243.71883114 -4.46669975 234.69180601 -4.35970268 225.66474448 C-4.14181456 207.28921671 -3.89918786 188.91404328 -3.64151001 170.53903198 C-3.62970307 169.69489616 -3.61789614 168.85076035 -3.60573141 167.98104466 C-2.81960193 111.97892561 -1.4557269 55.98822841 0 0 Z " fill="#6D32FC" transform="translate(1927,1338)"/>
<path d="M0 0 C2.00752595 -0.00520391 4.0150519 -0.01041033 6.0225774 -0.01578331 C14.5362214 -0.03782385 23.04984475 -0.04498839 31.56351471 -0.04643822 C33.76872274 -0.04687717 35.97393031 -0.04774305 38.17913818 -0.04866028 C82.53905443 -0.06372435 126.81392856 0.29131496 171.10614014 2.97528076 C174.91166227 3.20486549 178.71767199 3.42402471 182.52392578 3.64111328 C262.00365603 8.22570928 341.26676764 16.92605369 605.8828125 66.203125 C607.62830383 66.62434631 607.62830383 66.62434631 609.40905762 67.05407715 C647.47850547 76.24900699 685.27548559 86.27039781 722.8828125 97.203125 C723.85551086 97.48567139 724.82820923 97.76821777 725.8303833 98.05932617 C756.7263593 107.0522513 787.30310662 117.03165353 817.83331299 127.18878174 C820.62382763 128.11697986 823.41509974 129.04286101 826.20654297 129.96826172 C915.16759395 159.51389559 1002.47506686 195.76719561 1097.91015625 241.828125 C1102.20488263 243.91240811 1106.50680564 245.97876625 1110.82421875 248.015625 C1136.81596569 260.29948585 1162.50217886 273.38490807 1187.6484375 287.3203125 C1193.43436555 290.52493073 1199.27715981 293.62192415 1205.11587524 296.7288208 C1216.58631125 302.83763592 1227.93988977 309.12010389 1239.18212891 315.64013672 C1242.06075205 317.30610538 1244.94581417 318.96050611 1247.83203125 320.61328125 C1271.54145674 334.20838044 1295.11312452 348.06054132 1318.27539062 362.57128906 C1321.14637402 364.36807305 1324.02217339 366.15699484 1326.8984375 367.9453125 C1328.97668952 369.23937936 1331.05481677 370.53364663 1333.1328125 371.828125 C1334.05449219 372.40143555 1334.97617188 372.97474609 1335.92578125 373.56542969 C1351.06156916 383.01733652 1365.96085576 392.84346389 1380.86547852 402.65405273 C1382.74582004 403.8910128 1384.62700023 405.12669897 1386.5090332 406.36108398 C1399.08205925 414.60778987 1411.49557125 423.04361689 1423.77682495 431.71878052 C1426.58580156 433.69860653 1429.40842229 435.6577607 1432.234375 437.61328125 C1448.72211486 449.03042274 1464.96714066 460.74736907 1481.09375 472.66796875 C1484.28017692 475.02301255 1487.47301701 477.36890228 1490.671875 479.70703125 C1500.87726591 487.17528024 1510.91505424 494.82861624 1520.86816406 502.62939453 C1523.77612914 504.9009339 1526.70341477 507.14684058 1529.6328125 509.390625 C1535.24054548 513.69668847 1540.80682449 518.05290814 1546.359375 522.4296875 C1548.66125558 524.24402139 1550.96841879 526.05121091 1553.28125 527.8515625 C1561.97237288 534.62669917 1570.4881603 541.60096288 1578.97607422 548.62841797 C1581.51840325 550.72803669 1584.07526158 552.80959012 1586.6328125 554.890625 C1591.15204474 558.58133133 1595.60693481 562.3433448 1600.05224609 566.12231445 C1603.42189321 568.98217911 1606.82339106 571.7959379 1610.2578125 574.578125 C1615.9608259 579.2216526 1621.5026723 584.04052909 1627.046875 588.87109375 C1630.1181667 591.54546333 1633.21095499 594.19315129 1636.31274414 596.83203125 C1642.39908315 602.01290157 1648.34279917 607.31991967 1654.2109375 612.74609375 C1657.06526062 615.37090259 1659.96996298 617.92751178 1662.8984375 620.46875 C1666.07184214 623.24235563 1669.19557184 626.0706536 1672.32421875 628.89453125 C1673.97533583 630.3843178 1675.62881394 631.87149377 1677.28515625 633.35546875 C1684.21653854 639.56787459 1691.05988575 645.87219161 1697.8828125 652.203125 C1698.52009277 652.79383789 1699.15737305 653.38455078 1699.81396484 653.99316406 C1701.79683816 655.83228028 1703.77764156 657.67359978 1705.7578125 659.515625 C1706.36391357 660.07789795 1706.97001465 660.6401709 1707.59448242 661.21948242 C1710.5645367 663.98754206 1713.47941221 666.79054616 1716.328125 669.68359375 C1718.67670385 672.05348104 1721.09006093 674.28222641 1723.62486267 676.45106506 C1727.77276295 680.06112728 1731.6835127 683.86255483 1735.56469727 687.75561523 C1736.28613922 688.47530487 1737.00758118 689.19499451 1737.75088501 689.93649292 C1740.11116713 692.29240994 1742.46781479 694.65192326 1744.82421875 697.01171875 C1746.4773881 698.66421353 1748.1307058 700.31655992 1749.78416443 701.96876526 C1753.23949156 705.42262265 1756.69301531 708.87827043 1760.14526367 712.33520508 C1764.5554149 716.75105313 1768.97004077 721.16239612 1773.38603306 725.572402 C1776.79803356 728.98077734 1780.20763435 732.39154525 1783.61652946 735.8030262 C1785.24278447 737.42994506 1786.86977372 739.05613034 1788.49752998 740.68154716 C1790.77756553 742.95902401 1793.05433866 745.23971501 1795.33032227 747.52124023 C1795.99389236 748.1827861 1796.65746246 748.84433197 1797.34114075 749.52592468 C1801.1745668 753.37653273 1804.82150685 757.33760073 1808.36073208 761.46074009 C1810.42523168 763.82405343 1812.63519792 766.01465817 1814.8828125 768.203125 C1818.45432636 771.68065165 1821.74694062 775.31233824 1825.00878906 779.07519531 C1828.16740276 782.66176084 1831.46714258 786.11311495 1834.7578125 789.578125 C1840.55632183 795.71143199 1846.27317492 801.89636741 1851.8828125 808.203125 C1853.42377326 809.91209511 1854.96545138 811.62041863 1856.5078125 813.328125 C1861.29415992 818.64995018 1866.0194601 824.01825035 1870.66796875 829.4609375 C1871.69788729 830.66669176 1872.72783603 831.87242023 1873.7578125 833.078125 C1874.27746582 833.68664307 1874.79711914 834.29516113 1875.33251953 834.92211914 C1878.36173783 838.45936358 1881.43429833 841.94705077 1884.5703125 845.390625 C1888.32430426 849.52740304 1891.85427706 853.81033731 1895.3671875 858.15234375 C1898.31206801 861.72369729 1901.34016399 865.21510394 1904.3828125 868.703125 C1908.82617103 873.80334444 1913.19171384 878.94959858 1917.44921875 884.20703125 C1919.34185934 886.53713612 1921.24570014 888.85587382 1923.16015625 891.16796875 C1929.11833788 898.36545871 1935.02432277 905.59094614 1940.7668457 912.96191406 C1944.26686752 917.44593689 1947.84583081 921.86119593 1951.4453125 926.265625 C1956.6002793 932.58345115 1961.63026192 938.98105681 1966.56542969 945.47216797 C1967.98276311 947.33445373 1969.40496452 949.19294506 1970.828125 951.05078125 C1972.99313217 953.87719659 1975.15575471 956.70540986 1977.31640625 959.53515625 C1979.846157 962.8482128 1982.3810558 966.15726887 1984.91796875 969.46484375 C1991.1141097 977.55457443 1997.29452522 985.64127909 2003.16577148 993.97094727 C2006.58121437 998.81202786 2010.10296786 1003.57002569 2013.6328125 1008.328125 C2020.31826019 1017.36101663 2026.77572613 1026.54079373 2033.18554688 1035.77050781 C2034.76568494 1038.03525115 2036.35964959 1040.28924271 2037.9609375 1042.5390625 C2049.11481276 1058.25208428 2059.70346559 1074.34754093 2070.36083984 1090.39904785 C2073.29097649 1094.81152851 2076.22813833 1099.21900046 2079.1796875 1103.6171875 C2087.28037203 1115.68840731 2095.13869991 1127.90028604 2102.8828125 1140.203125 C2103.47674805 1141.14494629 2104.07068359 1142.08676758 2104.68261719 1143.05712891 C2119.87404521 1167.16668434 2134.66174495 1191.50806683 2148.8828125 1216.203125 C2149.51541992 1217.30092285 2150.14802734 1218.3987207 2150.79980469 1219.52978516 C2169.41143286 1251.86852104 2187.41821737 1284.52478012 2204.49575806 1317.70097351 C2207.62787945 1323.78526923 2210.79842704 1329.84682246 2214.0078125 1335.890625 C2223.6006732 1354.02247157 2232.60937183 1372.46225668 2241.37255859 1391.00732422 C2242.4333771 1393.25208889 2243.49639772 1395.49581357 2244.56103516 1397.73876953 C2254.68683022 1419.07263045 2264.42065881 1440.56697154 2273.8828125 1462.203125 C2274.18985107 1462.90465698 2274.49688965 1463.60618896 2274.81323242 1464.32897949 C2293.08653986 1506.11576999 2310.11261154 1548.41012465 2325.8828125 1591.203125 C2326.17418091 1591.99319946 2326.46554932 1592.78327393 2326.76574707 1593.59729004 C2330.58843154 1603.97377351 2334.3334151 1614.37675714 2338.0291748 1624.79907227 C2338.9181212 1627.30256295 2339.81087855 1629.80467285 2340.70410156 1632.30664062 C2378.68372326 1738.83128444 2407.933939 1848.46081179 2473.1328125 2288.078125 C2473.24851089 2289.86496201 2473.24851089 2289.86496201 2473.36654663 2291.68789673 C2473.95193804 2300.85599856 2474.43912643 2310.02731091 2474.8828125 2319.203125 C2474.92555801 2320.07338821 2474.96830353 2320.94365143 2475.01234436 2321.84028625 C2476.84429451 2359.39516131 2477.2005157 2396.89797763 2477.13995099 2434.48658192 C2477.13240738 2439.70983084 2477.13513872 2444.93300385 2477.14355469 2450.15625 C2477.20268488 2487.8820319 2476.73408762 2525.51269882 2474.8828125 2563.203125 C2474.82449501 2564.40918144 2474.82449501 2564.40918144 2474.76499939 2565.63960266 C2474.30104202 2575.20768202 2473.75178734 2584.76872577 2473.1328125 2594.328125 C2473.05044342 2595.6233609 2472.96807434 2596.9185968 2472.88320923 2598.25308228 C2467.81934135 2677.54407108 2458.98154562 2756.60228747 2377.8828125 3135.203125 C2377.57104065 3136.26692383 2377.2592688 3137.33072266 2376.93804932 3138.42675781 C2361.51254876 3190.92609941 2344.15893715 3242.99265521 2324.8828125 3294.203125 C2324.35361206 3295.61253357 2324.35361206 3295.61253357 2323.8137207 3297.05041504 C2305.39732903 3346.08523213 2285.42832434 3394.45920135 2263.8828125 3442.203125 C2263.58717407 3442.85885498 2263.29153564 3443.51458496 2262.98693848 3444.19018555 C2254.09214862 3463.91174937 2244.94295248 3483.489145 2235.44932556 3502.92936707 C2232.63865645 3508.68992457 2229.8844317 3514.47671021 2227.1328125 3520.265625 C2219.26996051 3536.75504969 2211.05568998 3553.05279028 2202.48242188 3569.18359375 C2200.92362487 3572.12608481 2199.37307336 3575.0727676 2197.82461548 3578.02070618 C2189.78135809 3593.33128345 2181.67017475 3608.57795207 2173.078125 3623.58984375 C2170.1501121 3628.70885572 2167.29927789 3633.86826616 2164.45458984 3639.03393555 C2156.78282887 3652.95503071 2148.78225115 3666.64516691 2140.62353516 3680.28417969 C2138.7071459 3683.49769301 2136.81266157 3686.72335053 2134.92553711 3689.95410156 C2125.08714816 3706.79640319 2114.85344626 3723.40094479 2104.375 3739.8515625 C2102.90967594 3742.16079047 2101.45730641 3744.47768475 2100.0078125 3746.796875 C2088.42095151 3765.26088315 2076.20119929 3783.31383511 2064.07666016 3801.42675781 C2062.07164584 3804.42301432 2060.07065764 3807.42185409 2058.07568359 3810.42480469 C2053.13218535 3817.86593606 2048.12617464 3825.25547141 2043.0078125 3832.578125 C2042.32291748 3833.55998779 2041.63802246 3834.54185059 2040.93237305 3835.5534668 C2038.91829709 3838.43840561 2036.90136244 3841.32131521 2034.8828125 3844.203125 C2034.05015869 3845.39204346 2034.05015869 3845.39204346 2033.20068359 3846.60498047 C2023.16331207 3860.91933679 2012.99822174 3875.1414053 2002.46826172 3889.09838867 C1999.20153398 3893.43109564 1995.9765336 3897.79207563 1992.77124023 3902.17041016 C1985.8899312 3911.56587875 1978.82535689 3920.79821633 1971.63720703 3929.96044922 C1969.8662885 3932.22424794 1968.10544035 3934.4955224 1966.34765625 3936.76953125 C1960.18140763 3944.7426143 1953.94473219 3952.64535662 1947.56396484 3960.44799805 C1944.13926423 3964.63994426 1940.77250763 3968.87099926 1937.4453125 3973.140625 C1928.80540533 3984.20599205 1919.80674955 3994.98468633 1910.71044922 4005.67651367 C1907.93396161 4008.94408421 1905.20723327 4012.24671643 1902.5078125 4015.578125 C1897.8642849 4021.2811384 1893.04540841 4026.8229848 1888.21484375 4032.3671875 C1885.54047417 4035.4384792 1882.89278621 4038.53126749 1880.25390625 4041.63305664 C1875.07303593 4047.71939565 1869.76601783 4053.66311167 1864.33984375 4059.53125 C1861.71256005 4062.38826439 1859.15391559 4065.29612002 1856.609375 4068.2265625 C1849.96876889 4075.82870433 1843.11446546 4083.24261084 1836.28564453 4090.67529297 C1834.45637459 4092.66756086 1832.63004235 4094.66250934 1830.80371094 4096.6574707 C1828.97525797 4098.65384952 1827.14466033 4100.64825581 1825.31396484 4102.64257812 C1824.33429178 4103.7108262 1823.35549241 4104.779876 1822.37744141 4105.84960938 C1816.74874615 4112.00560381 1811.10920449 4118.10571958 1805.11328125 4123.91015625 C1803.22641452 4125.84989491 1801.46678865 4127.82738396 1799.70396423 4129.87779236 C1796.12422334 4133.97954993 1792.36843724 4137.85899406 1788.51391602 4141.70141602 C1787.81373352 4142.40335083 1787.11355103 4143.10528564 1786.39215088 4143.82849121 C1784.10116406 4146.12384143 1781.80658351 4148.41555864 1779.51171875 4150.70703125 C1777.90406449 4152.31536013 1776.29655861 4153.92383736 1774.68919373 4155.53245544 C1771.32949305 4158.89362563 1767.96800278 4162.25299286 1764.60522461 4165.61108398 C1760.31044474 4169.90016705 1756.02017041 4174.19372439 1751.73123264 4178.48864841 C1748.41550387 4181.80800298 1745.09738185 4185.12495697 1741.77854729 4188.44120598 C1740.1962859 4190.02280368 1738.61475761 4191.60513516 1737.03399849 4193.18823433 C1734.81878797 4195.40600461 1732.60036218 4197.62051004 1730.38110352 4199.83422852 C1729.73825912 4200.47909714 1729.09541473 4201.12396576 1728.43309021 4201.78837585 C1724.62706629 4205.5769521 1720.70603255 4209.17573332 1716.63165188 4212.67459011 C1714.26659606 4214.74171553 1712.07341255 4216.95331954 1709.8828125 4219.203125 C1706.40528585 4222.77463886 1702.77359926 4226.06725312 1699.01074219 4229.32910156 C1695.42417716 4232.48771482 1691.97281223 4235.78744495 1688.5078125 4239.078125 C1683.13264808 4244.16016209 1677.73393535 4249.20314478 1672.2109375 4254.125 C1669.54231734 4256.50705692 1666.90007681 4258.91687834 1664.2578125 4261.328125 C1658.78798801 4266.30207976 1653.2504531 4271.1828711 1647.62890625 4275.984375 C1646.42183937 4277.0155833 1645.21480913 4278.04683448 1644.0078125 4279.078125 C1643.39921387 4279.59785889 1642.79061523 4280.11759277 1642.16357422 4280.65307617 C1638.62638293 4283.68218095 1635.13880196 4286.75468803 1631.6953125 4289.890625 C1627.55853446 4293.64461676 1623.27560019 4297.17458956 1618.93359375 4300.6875 C1615.36224252 4303.63237861 1611.87078156 4306.66041925 1608.3828125 4309.703125 C1602.31240752 4314.99327815 1596.14492513 4320.14054224 1589.8828125 4325.203125 C1588.15283493 4326.6188013 1586.42369013 4328.0354958 1584.6953125 4329.453125 C1582.75824871 4331.03699197 1580.82070214 4332.62026858 1578.8828125 4334.203125 C1578.28307617 4334.69329102 1577.68333984 4335.18345703 1577.06542969 4335.68847656 C1568.30796299 4342.84165646 1559.49508667 4349.91398867 1550.58300781 4356.87353516 C1548.33121304 4358.63448782 1546.08562178 4360.40325997 1543.83984375 4362.171875 C1525.57474482 4376.54989338 1507.09945721 4390.594605 1488.375 4404.36816406 C1485.93829362 4406.16227507 1483.50389476 4407.95946678 1481.0703125 4409.7578125 C1452.57288146 4430.81057489 1423.54505239 4451.04816924 1394.18310547 4470.8737793 C1392.31541259 4472.13557111 1390.44855054 4473.39859359 1388.58251953 4474.6628418 C1377.7133281 4482.0266096 1366.78619027 4489.23865922 1355.6114502 4496.12997437 C1351.03871895 4498.9687586 1346.53159223 4501.9122932 1342.0078125 4504.828125 C1318.62426706 4519.83026717 1294.81641783 4534.1025892 1270.8828125 4548.203125 C1269.77599121 4548.85587402 1268.66916992 4549.50862305 1267.52880859 4550.18115234 C1252.43336045 4559.0728628 1237.20059638 4567.70095983 1221.8828125 4576.203125 C1220.69799451 4576.86247763 1219.51326332 4577.52198628 1218.32861328 4578.18164062 C1203.1370227 4586.63833981 1187.87042448 4594.91335304 1172.41894531 4602.88867188 C1169.37431006 4604.4666769 1166.34262642 4606.06819049 1163.3125 4607.67382812 C1140.5340641 4619.73660197 1117.64094169 4631.59952506 1094.31933594 4642.58056641 C1091.13671663 4644.08324387 1087.95947228 4645.59658083 1084.7837677 4647.11378479 C1063.77111029 4657.15009682 1042.61731123 4666.81537675 1021.28417969 4676.15026855 C1018.84924038 4677.21784437 1016.41653809 4678.29037353 1013.984375 4679.36425781 C968.28872577 4699.52712142 921.84613563 4718.19476215 874.8828125 4735.203125 C873.98119385 4735.52974121 873.0795752 4735.85635742 872.15063477 4736.19287109 C806.56627877 4759.91547279 740.22001698 4781.02022054 672.8828125 4799.203125 C671.29681244 4799.63144623 671.29681244 4799.63144623 669.67877197 4800.06842041 C632.62897401 4810.05000689 595.34512676 4818.92148024 557.8828125 4827.203125 C556.8329718 4827.43582092 555.7831311 4827.66851685 554.70147705 4827.90826416 C480.23839931 4844.38157105 404.71271781 4856.65080656 159.4453125 4879.890625 C158.23268738 4879.95156342 157.02006226 4880.01250183 155.77069092 4880.07528687 C148.6399628 4880.42884904 141.50849432 4880.75510468 134.37530518 4881.05496216 C132.12493391 4881.15043019 129.874711 4881.24949718 127.62469482 4881.35299683 C99.83527437 4882.61234324 72.00752287 4882.39075881 44.19623035 4882.38823646 C39.32724777 4882.3885372 34.45832153 4882.39664626 29.58935547 4882.40893555 C-7.68493147 4882.50076162 -44.87565049 4881.957438 -82.1171875 4880.203125 C-82.96829353 4880.16312 -83.81939957 4880.12311501 -84.69629669 4880.08189774 C-94.77940673 4879.60258699 -104.85529814 4879.02826518 -114.9296875 4878.390625 C-116.29610359 4878.30565993 -117.66252839 4878.22083492 -119.02896118 4878.13613892 C-212.30420263 4872.33211376 -305.28060251 4861.27839273 -462.1171875 4832.203125 C-463.30862366 4831.95925049 -464.50005981 4831.71537598 -465.7276001 4831.46411133 C-545.89317931 4814.99613536 -625.14542891 4794.02614868 -703.1171875 4769.203125 C-704.26062622 4768.83981079 -705.40406494 4768.47649658 -706.58215332 4768.10217285 C-742.41250044 4756.70627448 -777.85176645 4744.41921918 -813.09490967 4731.3236084 C-816.83594367 4729.93665236 -820.58133535 4728.56176161 -824.32710266 4727.18765259 C-880.20742287 4706.6719455 -935.0658562 4683.11696239 -989.1171875 4658.203125 C-989.87602234 4657.8534668 -990.63485718 4657.50380859 -991.41668701 4657.14355469 C-1014.52993099 4646.47428128 -1037.3405076 4635.19070799 -1060.11727905 4623.82556915 C-1062.20853723 4622.78241039 -1064.30038487 4621.74044177 -1066.39233398 4620.69866943 C-1082.02910073 4612.90731103 -1097.52781664 4604.93544943 -1112.81420898 4596.47061157 C-1116.19770965 4594.60843977 -1119.60536897 4592.79346661 -1123.01953125 4590.98828125 C-1124.18387695 4590.37202881 -1125.34822266 4589.75577637 -1126.54785156 4589.12084961 C-1127.70510742 4588.50862549 -1128.86236328 4587.89640137 -1130.0546875 4587.265625 C-1142.86856453 4580.46162344 -1155.53518483 4573.4280725 -1168.1171875 4566.203125 C-1169.59904541 4565.35596924 -1169.59904541 4565.35596924 -1171.11083984 4564.49169922 C-1204.91202655 4545.16678553 -1238.28044753 4525.12708842 -1271.1171875 4504.203125 C-1272.600979 4503.25904785 -1272.600979 4503.25904785 -1274.11474609 4502.29589844 C-1285.96326051 4494.75347062 -1297.788303 4487.18703584 -1309.43408203 4479.33447266 C-1311.14580152 4478.18389127 -1312.86292099 4477.04184904 -1314.58203125 4475.90234375 C-1339.03868978 4459.68731761 -1363.22514228 4443.04116855 -1386.95214844 4425.77539062 C-1389.15167283 4424.17808153 -1391.35619224 4422.58792417 -1393.5625 4421 C-1409.61771943 4409.44436591 -1425.54687415 4397.73770815 -1441.21826172 4385.66552734 C-1442.95493721 4384.32807733 -1444.69372098 4382.99344267 -1446.43359375 4381.66015625 C-1449.66594645 4379.18026613 -1452.89279046 4376.69334077 -1456.1171875 4374.203125 C-1456.79362305 4373.68137695 -1457.47005859 4373.15962891 -1458.16699219 4372.62207031 C-1466.98294028 4365.81670816 -1475.73185142 4358.94386857 -1484.35205078 4351.8918457 C-1488.62753788 4348.39793942 -1492.94766113 4344.9696188 -1497.3046875 4341.578125 C-1502.47979998 4337.54458145 -1507.518933 4333.37679721 -1512.50683594 4329.11450195 C-1515.64414449 4326.43667399 -1518.81749219 4323.82158345 -1522.0546875 4321.265625 C-1526.76649208 4317.5328967 -1531.31651483 4313.62918583 -1535.8659668 4309.70214844 C-1539.48794847 4306.58139895 -1543.14988011 4303.52312122 -1546.8671875 4300.515625 C-1551.24802052 4296.96100172 -1555.43396552 4293.23813876 -1559.6015625 4289.4375 C-1562.13049045 4287.19130934 -1564.72768664 4285.06781282 -1567.3671875 4282.953125 C-1573.12953085 4278.2942091 -1578.50210756 4273.26984784 -1583.90234375 4268.203125 C-1586.89493083 4265.39795246 -1589.9567931 4262.68698454 -1593.0625 4260.0078125 C-1596.76633251 4256.75463642 -1600.37155752 4253.39202226 -1603.9921875 4250.046875 C-1606.29968513 4247.92881846 -1608.64718044 4245.86272713 -1611.01171875 4243.80859375 C-1615.03247938 4240.3031929 -1618.92845346 4236.67941625 -1622.8046875 4233.015625 C-1627.83755372 4228.27399899 -1632.89292909 4223.56073031 -1637.9921875 4218.890625 C-1642.66510752 4214.6053336 -1647.18479833 4210.19999931 -1651.60546875 4205.65234375 C-1653.49630596 4203.80855692 -1655.38160078 4202.12241785 -1657.39306641 4200.42285156 C-1663.97085358 4194.68228205 -1670.05009925 4188.41384971 -1676.21484375 4182.23828125 C-1677.57655008 4180.87724987 -1678.93840472 4179.51636685 -1680.30039978 4178.15562439 C-1683.14370669 4175.31378545 -1685.98521349 4172.47016218 -1688.82543945 4169.62524414 C-1692.44864781 4165.99633908 -1696.07632793 4162.3719428 -1699.70537663 4158.74887943 C-1702.51517896 4155.9427071 -1705.3225749 4153.13413701 -1708.12927055 4150.32485771 C-1709.4652532 4148.98821254 -1710.80196644 4147.65229716 -1712.13945198 4146.31715584 C-1724.76941964 4133.70447528 -1724.76941964 4133.70447528 -1729.75645447 4127.78404236 C-1732.21224983 4124.93086732 -1734.92442562 4122.33036956 -1737.6171875 4119.703125 C-1741.70807335 4115.71177408 -1745.55850569 4111.60310628 -1749.29589844 4107.27832031 C-1752.4319657 4103.70505333 -1755.71866555 4100.27503682 -1758.9921875 4096.828125 C-1764.05303721 4091.47567037 -1769.07205179 4086.09795227 -1773.97265625 4080.59765625 C-1776.53718495 4077.7341661 -1779.1389685 4074.90639479 -1781.7421875 4072.078125 C-1786.90244903 4066.45985729 -1791.9402002 4060.75331745 -1796.89453125 4054.953125 C-1797.92702933 4053.74474552 -1798.95958296 4052.5364135 -1799.9921875 4051.328125 C-1800.77190918 4050.4151062 -1800.77190918 4050.4151062 -1801.56738281 4049.48364258 C-1804.59637406 4045.94650442 -1807.66882773 4042.45902969 -1810.8046875 4039.015625 C-1814.55867926 4034.87884696 -1818.08865206 4030.59591269 -1821.6015625 4026.25390625 C-1824.54644301 4022.68255271 -1827.57453899 4019.19114606 -1830.6171875 4015.703125 C-1835.06295251 4010.60014333 -1839.42982421 4005.45021407 -1843.69140625 4000.19140625 C-1846.13602561 3997.17991864 -1848.60039229 3994.18563082 -1851.06933594 3991.1940918 C-1862.24394506 3977.6537554 -1873.32525741 3964.05092414 -1884.1171875 3950.203125 C-1884.65456543 3949.51492676 -1885.19194336 3948.82672852 -1885.74560547 3948.11767578 C-1893.67490941 3937.9622848 -1901.54410511 3927.76285493 -1909.35302734 3917.51464844 C-1911.27700295 3914.99372385 -1913.20666117 3912.47720825 -1915.13671875 3909.9609375 C-1922.19200011 3900.75104925 -1929.14827597 3891.5002612 -1935.83056641 3882.01660156 C-1938.35734408 3878.45513959 -1940.92956893 3874.92633284 -1943.4921875 3871.390625 C-1948.20179069 3864.8816305 -1952.87215714 3858.34667413 -1957.49189758 3851.77357483 C-1959.94503366 3848.28391931 -1962.40247222 3844.7976668 -1964.87817383 3841.32397461 C-1972.37302053 3830.79287691 -1979.59927603 3820.10017368 -1986.7421875 3809.328125 C-1987.8842237 3807.60931257 -1989.02647939 3805.89064597 -1990.16894531 3804.17211914 C-1991.88203487 3801.59507258 -1993.59490555 3799.01788312 -1995.3067627 3796.4400177 C-1998.63169745 3791.43352535 -2001.96585783 3786.43341175 -2005.3125 3781.44140625 C-2014.44348952 3767.81609685 -2023.41362739 3754.10580695 -2032.1171875 3740.203125 C-2032.64054687 3739.36716797 -2033.16390625 3738.53121094 -2033.703125 3737.66992188 C-2037.53730552 3731.53237172 -2041.33537903 3725.37306205 -2045.1171875 3719.203125 C-2045.76026855 3718.15415039 -2046.40334961 3717.10517578 -2047.06591797 3716.02441406 C-2075.66126896 3669.30889909 -2102.64257218 3621.68909732 -2128.1171875 3573.203125 C-2129.01824219 3571.48996094 -2129.01824219 3571.48996094 -2129.9375 3569.7421875 C-2146.8887766 3537.43594286 -2163.51851225 3504.86215625 -2178.5625 3471.62011719 C-2180.2591408 3467.89113091 -2181.98336302 3464.17565299 -2183.7109375 3460.4609375 C-2224.81064589 3371.87983156 -2260.06898407 3280.27479637 -2401.2440834 2592.03784943 C-2401.36162529 2590.1069951 -2401.48122244 2588.17626622 -2401.60092163 2586.24554443 C-2404.40043011 2540.41079111 -2405.46312982 2494.53323303 -2405.37792969 2448.61914062 C-2405.36653653 2442.43957457 -2405.3733412 2436.26018099 -2405.38480663 2430.08062077 C-2405.45726825 2383.93102947 -2404.18459823 2337.82802352 -2401.3046875 2291.765625 C-2401.21970806 2290.38033964 -2401.13488349 2288.99504478 -2401.05020142 2287.60974121 C-2394.79370159 2185.6654818 -2382.09316319 2084.17100732 -2290.1171875 1696.203125 C-2289.82197205 1695.27493958 -2289.52675659 1694.34675415 -2289.22259521 1693.39044189 C-2271.35808526 1637.24051628 -2251.45525512 1581.73471908 -2229.1171875 1527.203125 C-2228.81379456 1526.46096741 -2228.51040161 1525.71880981 -2228.19781494 1524.9541626 C-2212.98058549 1487.73316257 -2197.06532775 1450.83631974 -2180.12200928 1414.36706543 C-2179.12978779 1412.23026044 -2178.14018659 1410.09225687 -2177.15087891 1407.95410156 C-2167.37346139 1386.85355237 -2157.11561511 1365.99419883 -2146.73184967 1345.18702316 C-2145.75874903 1343.23632461 -2144.78693256 1341.28499092 -2143.81536865 1339.33352661 C-2136.30270958 1324.25235605 -2128.56531473 1309.32617222 -2120.41802979 1294.5760498 C-2118.47830554 1291.03771174 -2116.59328868 1287.47163441 -2114.71875 1283.8984375 C-2114.22287384 1282.9544812 -2114.22287384 1282.9544812 -2113.71697998 1281.99145508 C-2113.06014182 1280.74083717 -2112.40344344 1279.49014583 -2111.74688721 1278.23937988 C-2105.75421626 1266.83943467 -2099.56454308 1255.59909649 -2093.00219727 1244.51391602 C-2089.43846926 1238.49251542 -2086.00910574 1232.41935085 -2082.6796875 1226.265625 C-2076.84958235 1215.53754424 -2070.53753467 1205.1129967 -2064.21191406 1194.671875 C-2061.98660735 1190.99274331 -2059.78146423 1187.30169173 -2057.578125 1183.609375 C-2049.70844783 1170.42771494 -2041.77521515 1157.30188383 -2033.49853516 1144.37011719 C-2032.09422832 1142.16710773 -2030.70337815 1139.95614681 -2029.31640625 1137.7421875 C-2003.82809271 1097.0808104 -1976.92522694 1057.17037628 -1948.68945312 1018.36816406 C-1947.09214403 1016.16863967 -1945.50198667 1013.96412026 -1943.9140625 1011.7578125 C-1932.35842841 995.70259307 -1920.65177065 979.77343835 -1908.57958984 964.10205078 C-1907.24213983 962.36537529 -1905.90750517 960.62659152 -1904.57421875 958.88671875 C-1902.09432863 955.65436605 -1899.60740327 952.42752204 -1897.1171875 949.203125 C-1896.59543945 948.52668945 -1896.07369141 947.85025391 -1895.53613281 947.15332031 C-1888.72850759 938.33444055 -1881.85211663 929.58378632 -1874.79931641 920.95947266 C-1871.37431256 916.76710113 -1868.00720321 912.53566213 -1864.6796875 908.265625 C-1855.24263226 896.17932845 -1845.37582734 884.43635712 -1835.43945312 872.75927734 C-1834.09468555 871.17664283 -1832.75376634 869.59082882 -1831.4140625 868.00390625 C-1825.69141747 861.22541888 -1819.93716249 854.47495658 -1814.15625 847.74609375 C-1812.12349526 845.37933975 -1810.09800834 843.00665316 -1808.078125 840.62890625 C-1802.37064729 833.91990692 -1796.55427858 827.34204958 -1790.57421875 820.875 C-1787.94693505 818.01798561 -1785.38829059 815.11012998 -1782.84375 812.1796875 C-1776.19904053 804.57284815 -1769.34018053 797.15475371 -1762.50683594 789.71777344 C-1761.16880079 788.25938095 -1759.83432742 786.79772307 -1758.5 785.3359375 C-1738.48880893 763.42457399 -1738.48880893 763.42457399 -1728.91676331 754.03514099 C-1727.2908923 752.3799611 -1725.8025271 750.68290174 -1724.31225586 748.90649414 C-1718.38584376 742.09728617 -1711.88098972 735.82346344 -1705.49609375 729.44921875 C-1704.06780158 728.02025173 -1702.63965777 726.59113639 -1701.21165466 725.16188049 C-1698.22858074 722.17733813 -1695.24372088 719.19459676 -1692.25756836 716.21313477 C-1688.44706111 712.40832425 -1684.64106165 708.59904121 -1680.83639622 704.78839016 C-1677.89125388 701.83961912 -1674.94371517 698.89325267 -1671.99546623 695.94758797 C-1670.5918348 694.54461942 -1669.18893418 693.1409193 -1667.78680611 691.73644829 C-1654.54397094 678.47633918 -1654.54397094 678.47633918 -1648.63230896 673.49806213 C-1646.14581772 671.37291909 -1643.90211916 669.04311525 -1641.6171875 666.703125 C-1637.86568956 662.89443166 -1634.01128981 659.28345624 -1629.9453125 655.8125 C-1628.08780762 654.17726066 -1626.35112741 652.46830707 -1624.6171875 650.703125 C-1622.35920807 648.40986464 -1620.05722246 646.23884472 -1617.6171875 644.140625 C-1613.51208198 640.60478216 -1609.56723509 636.90977262 -1605.6171875 633.203125 C-1601.13783515 629.00335602 -1596.64863338 624.83617329 -1591.9921875 620.83203125 C-1589.72967569 618.86647411 -1587.52028067 616.84639191 -1585.3046875 614.828125 C-1581.86340545 611.71783649 -1578.35397452 608.73834188 -1574.7421875 605.828125 C-1570.72894639 602.5836174 -1566.89282796 599.2158582 -1563.1171875 595.703125 C-1558.4846765 591.3931873 -1553.695968 587.3525156 -1548.765625 583.3828125 C-1546.14443631 581.22555101 -1543.62564469 578.990015 -1541.1171875 576.703125 C-1536.46838857 572.47628278 -1531.65432909 568.49830208 -1526.77050781 564.54736328 C-1524.2018082 562.45887242 -1521.6503431 560.34960773 -1519.09716797 558.2421875 C-1507.26633532 548.47688657 -1495.41654313 538.73811473 -1483.32861328 529.29174805 C-1479.75346012 526.49641695 -1476.20291312 523.67308565 -1472.66772461 520.82739258 C-1464.69781188 514.41365466 -1456.60585594 508.17381436 -1448.45947266 501.98632812 C-1445.96956279 500.09073696 -1443.48628627 498.1866897 -1441.00390625 496.28125 C-1431.30028865 488.84240661 -1421.52082545 481.53926772 -1411.58203125 474.41796875 C-1406.87155393 471.03878111 -1402.21316169 467.59096224 -1397.5546875 464.140625 C-1389.56278432 458.23289594 -1381.4867482 452.45777815 -1373.34326172 446.76123047 C-1370.98562812 445.11104209 -1368.63132275 443.45617811 -1366.27734375 441.80078125 C-1338.61467617 422.36477865 -1310.56241059 403.47615168 -1282.1171875 385.203125 C-1281.27381836 384.66059082 -1280.43044922 384.11805664 -1279.56152344 383.55908203 C-1239.53865614 357.847018 -1198.64196008 333.4123962 -1157.1171875 310.203125 C-1156.0741748 309.61853516 -1155.03116211 309.03394531 -1153.95654297 308.43164062 C-1136.78785497 298.81370021 -1119.51599854 289.39765889 -1102.1171875 280.203125 C-1100.57321289 279.38666504 -1100.57321289 279.38666504 -1098.99804688 278.55371094 C-1081.44380204 269.30488137 -1063.69755023 260.42841407 -1045.96155548 251.53491974 C-1044.09425329 250.59797763 -1042.22765997 249.65963817 -1040.36126709 248.72088623 C-1022.76317787 239.8731203 -1005.03140852 231.3966828 -987.1171875 223.203125 C-985.26016301 222.35109495 -983.40314743 221.4990455 -981.54614258 220.64697266 C-976.55484587 218.36104105 -971.55680619 216.09026882 -966.5546875 213.828125 C-965.67198181 213.42892853 -964.78927612 213.02973206 -963.87982178 212.61843872 C-905.63934458 186.31104246 -846.25157594 162.80674903 -786.1171875 141.203125 C-785.31702209 140.91542236 -784.51685669 140.62771973 -783.69244385 140.33129883 C-722.31818653 118.28864189 -660.06865916 99.18249061 -597.1171875 82.203125 C-595.71684265 81.82444275 -595.71684265 81.82444275 -594.28820801 81.43811035 C-506.277934 57.6541397 -416.71130623 39.41227806 -88.1171875 2.515625 C-86.93034363 2.45468658 -85.74349976 2.39374817 -84.52069092 2.33096313 C-56.34723178 0.90285733 -28.20894275 0.04585876 0 0 Z M-960.1171875 334.203125 C-961.20676758 334.7182666 -962.29634766 335.2334082 -963.41894531 335.76416016 C-979.74556395 343.50973083 -995.92843668 351.54816888 -1012.10174561 359.60778809 C-1014.36435807 360.73507486 -1016.6275614 361.86117665 -1018.89141846 362.98596191 C-1033.00522916 370.00301855 -1046.9309762 377.28242876 -1060.73184204 384.89556885 C-1064.13137468 386.75906405 -1067.55397287 388.57692983 -1070.984375 390.3828125 C-1084.75892653 397.64516636 -1098.33455567 405.12376527 -1111.7421875 413.05078125 C-1116.40138504 415.8011843 -1121.11593094 418.42867119 -1125.8671875 421.015625 C-1134.92053126 425.97007155 -1143.70732153 431.36108297 -1152.51049805 436.7421875 C-1159.86129002 441.2345065 -1167.24642785 445.66071886 -1174.6796875 450.015625 C-1182.89463672 454.84157367 -1190.99468306 459.82109857 -1199.0222168 464.95239258 C-1202.3706368 467.09066058 -1205.72300972 469.22246591 -1209.07958984 471.34790039 C-1221.2851791 479.08242224 -1233.41449146 486.92466863 -1245.47705078 494.88037109 C-1248.24681708 496.70617678 -1251.01980312 498.52701909 -1253.79296875 500.34765625 C-1265.33720953 507.94419978 -1276.71754361 515.74487221 -1288.00616455 523.71575928 C-1290.81706015 525.69623503 -1293.64125051 527.65658164 -1296.46875 529.61328125 C-1338.79540165 558.92290008 -1380.27064552 589.79352572 -1420.15112305 622.36425781 C-1424.47275571 625.88756061 -1428.83950133 629.34441358 -1433.2421875 632.765625 C-1438.65591217 636.98133735 -1443.89098945 641.3734392 -1449.07861328 645.86352539 C-1452.54857668 648.86598459 -1456.05298885 651.81210589 -1459.6171875 654.703125 C-1465.60847915 659.57159772 -1471.45381328 664.60238176 -1477.30126953 669.64160156 C-1479.12019398 671.2057103 -1480.94398829 672.76393576 -1482.76953125 674.3203125 C-1488.8820268 679.53437268 -1494.93941326 684.79266857 -1500.890625 690.19140625 C-1502.94823141 692.05047169 -1505.02565513 693.88240858 -1507.1171875 695.703125 C-1510.96690484 699.05809955 -1514.76371748 702.46950572 -1518.5546875 705.890625 C-1521.02984081 708.12429993 -1523.51087062 710.35130216 -1525.9921875 712.578125 C-1531.2268698 717.28933907 -1536.41677685 722.04862593 -1541.60253906 726.81347656 C-1543.06093155 728.15151171 -1544.52258943 729.48598508 -1545.984375 730.8203125 C-1557.35958091 741.20905069 -1568.73862643 751.60407548 -1579.4921875 762.640625 C-1581.4793338 764.58045829 -1583.46816965 766.37258922 -1585.57788086 768.16821289 C-1591.0846169 772.97201445 -1596.21265504 778.15416983 -1601.37109375 783.32421875 C-1602.44133717 784.39378664 -1603.51172884 785.46320621 -1604.58226013 786.53248596 C-1606.81354663 788.76230724 -1609.04303807 790.9939034 -1611.27124023 793.22680664 C-1614.10750638 796.06876932 -1616.94823981 798.90621742 -1619.79034519 801.74233913 C-1621.99795083 803.94630726 -1624.20313971 806.15268119 -1626.40763664 808.35975838 C-1627.45334729 809.40612949 -1628.49978285 810.45177674 -1629.54699898 811.49664116 C-1634.74688563 816.68740699 -1639.87864402 821.89461516 -1644.63511658 827.50086975 C-1647.29938489 830.56095591 -1650.21944882 833.3664167 -1653.1171875 836.203125 C-1657.45983097 840.49554471 -1661.66394535 844.81847073 -1665.61328125 849.48046875 C-1667.20824748 851.30743007 -1668.88736592 853.00371787 -1670.6171875 854.703125 C-1672.91044786 856.96110443 -1675.08146778 859.26309004 -1677.1796875 861.703125 C-1680.71553034 865.80823052 -1684.41053988 869.75307741 -1688.1171875 873.703125 C-1692.31378715 878.17909703 -1696.47602915 882.66641467 -1700.48046875 887.31640625 C-1702.49592522 889.63971287 -1704.55567212 891.92060965 -1706.6171875 894.203125 C-1712.9526184 901.23066179 -1719.13674691 908.37998402 -1725.28564453 915.57055664 C-1728.55255783 919.38802218 -1731.83898154 923.18764941 -1735.13867188 926.97680664 C-1740.15057056 932.73417384 -1745.07958692 938.53874435 -1749.8828125 944.47265625 C-1752.37877569 947.52279308 -1754.9326606 950.51890905 -1757.4921875 953.515625 C-1761.7983436 958.56727968 -1765.92478336 963.73655932 -1769.99609375 968.97851562 C-1773.06512784 972.91261739 -1776.23782131 976.73404796 -1779.4921875 980.515625 C-1784.28873559 986.10428727 -1788.77084581 991.90017886 -1793.21484375 997.77148438 C-1796.73412266 1002.41543851 -1800.32549487 1006.98744715 -1803.9921875 1011.515625 C-1809.23938349 1018.01571402 -1814.26609127 1024.66757098 -1819.25805664 1031.36499023 C-1823.9352295 1037.63913032 -1828.67140512 1043.86534582 -1833.4296875 1050.078125 C-1839.04449906 1057.42396405 -1844.51449745 1064.84532002 -1849.83935547 1072.40283203 C-1851.78075903 1075.13800777 -1853.75405436 1077.84981847 -1855.72436523 1080.56420898 C-1860.95800568 1087.77650618 -1866.13187598 1095.0278822 -1871.2421875 1102.328125 C-1872.02964355 1103.45275146 -1872.02964355 1103.45275146 -1872.83300781 1104.60009766 C-1882.61480692 1118.6119444 -1892.22536942 1132.74070509 -1901.7878418 1146.90283203 C-1903.04963361 1148.77052491 -1904.31265609 1150.63738696 -1905.5769043 1152.50341797 C-1912.95484716 1163.39353231 -1920.18893514 1174.33835566 -1927.08700562 1185.53894043 C-1929.59014777 1189.58258613 -1932.17667585 1193.57391622 -1934.7421875 1197.578125 C-1948.31263334 1218.8529973 -1961.33495966 1240.44725149 -1974.1171875 1262.203125 C-1974.72304687 1263.23179688 -1975.32890625 1264.26046875 -1975.953125 1265.3203125 C-1984.24477727 1279.40525893 -1992.33994415 1293.59112013 -2000.27246094 1307.88134766 C-2001.86448102 1310.74807943 -2003.46071128 1313.61242201 -2005.05828857 1316.47605896 C-2013.16455397 1331.01651546 -2021.04113103 1345.64808344 -2028.640625 1360.4609375 C-2030.91037883 1364.8847481 -2033.21580272 1369.28780142 -2035.54307556 1373.68147278 C-2041.84231818 1385.5829986 -2047.9124782 1397.59443732 -2053.9296875 1409.640625 C-2054.45731689 1410.6961557 -2054.98494629 1411.7516864 -2055.52856445 1412.83920288 C-2063.11492902 1428.02986227 -2070.53846941 1443.26346587 -2077.54052734 1458.73339844 C-2079.30617615 1462.6190288 -2081.09520401 1466.49343876 -2082.88671875 1470.3671875 C-2115.8335572 1541.70855598 -2144.58617445 1614.8970748 -2170.1171875 1689.203125 C-2170.40402405 1690.037229 -2170.6908606 1690.87133301 -2170.98638916 1691.73071289 C-2192.26414213 1753.69218827 -2210.33478548 1816.6309037 -2226.1171875 1880.203125 C-2226.35417358 1881.15495667 -2226.59115967 1882.10678833 -2226.83532715 1883.08746338 C-2250.97432989 1980.10962631 -2268.18570567 2078.62345468 -2242.1171875 2933.203125 C-2241.91625488 2934.14909546 -2241.71532227 2935.09506592 -2241.50830078 2936.06970215 C-2221.91200074 3028.27574164 -2195.93279347 3119.13715267 -2097.1171875 3380.203125 C-2096.82841736 3380.85845215 -2096.53964722 3381.5137793 -2096.24212646 3382.18896484 C-2074.10393937 3432.38003729 -2050.85817125 3482.73899389 -2024.16015625 3530.6796875 C-2021.74907197 3535.01914998 -2019.41640319 3539.39580943 -2017.10546875 3543.7890625 C-2016.75177216 3544.46120285 -2016.39807556 3545.1333432 -2016.03366089 3545.82585144 C-2015.67515045 3546.50714615 -2015.31664001 3547.18844086 -2014.94726562 3547.89038086 C-2008.61169165 3559.92849879 -2002.14108612 3571.83839604 -1995.20874023 3583.54736328 C-1991.12057014 3590.45268502 -1987.18820143 3597.4309561 -1983.3046875 3604.453125 C-1976.23958236 3617.18172734 -1968.6822364 3629.58560614 -1961.07568359 3641.99414062 C-1958.28588858 3646.56520341 -1955.54527329 3651.16496475 -1952.8046875 3655.765625 C-1947.56128554 3664.53796748 -1942.13619034 3673.18647177 -1936.64160156 3681.80322266 C-1935.16230242 3684.13210006 -1933.69658552 3686.46895806 -1932.234375 3688.80859375 C-1908.30690683 3726.94647956 -1882.81151163 3764.22992003 -1856.390625 3800.6796875 C-1854.24027368 3803.64678947 -1852.09988434 3806.62063004 -1849.96875 3809.6015625 C-1842.81183733 3819.59663766 -1835.44072 3829.40947148 -1827.96484375 3839.16796875 C-1824.6078545 3843.55150959 -1821.29208595 3847.96404057 -1817.9921875 3852.390625 C-1811.49243187 3861.09233866 -1804.81133078 3869.65059001 -1798.1171875 3878.203125 C-1797.11192327 3879.49084179 -1796.10671212 3880.77860001 -1795.1015625 3882.06640625 C-1790.32178576 3888.18070521 -1785.48861419 3894.24317831 -1780.5546875 3900.234375 C-1778.71270836 3902.47781114 -1776.88000916 3904.72745019 -1775.0546875 3906.984375 C-1769.43965466 3913.9257606 -1763.78754541 3920.82582365 -1757.99829102 3927.62280273 C-1755.18414477 3930.92984816 -1752.41678985 3934.26961564 -1749.6796875 3937.640625 C-1744.78602392 3943.64885965 -1739.73691958 3949.51771633 -1734.67871094 3955.38720703 C-1733.1146022 3957.20613148 -1731.55637674 3959.02992579 -1730 3960.85546875 C-1724.78593982 3966.9679643 -1719.52764393 3973.02535076 -1714.12890625 3978.9765625 C-1712.26984081 3981.03416891 -1710.43790392 3983.11159263 -1708.6171875 3985.203125 C-1704.50636323 3989.92015377 -1700.3097649 3994.55882209 -1696.1171875 3999.203125 C-1694.61690071 4000.86953351 -1693.11689878 4002.53619853 -1691.6171875 4004.203125 C-1690.86824219 4005.03457031 -1690.11929688 4005.86601562 -1689.34765625 4006.72265625 C-1687.90985559 4008.32161145 -1686.47474877 4009.92299514 -1685.04296875 4011.52734375 C-1678.78386339 4018.5268978 -1672.37555654 4025.38198878 -1665.95654297 4032.234375 C-1664.14133109 4034.17728296 -1662.33323678 4036.12655561 -1660.52734375 4038.078125 C-1654.13455805 4044.97754865 -1647.66120403 4051.7497262 -1640.93359375 4058.32421875 C-1638.87341794 4060.37901244 -1636.96876389 4062.52015946 -1635.08154297 4064.734375 C-1630.57007347 4069.90879513 -1625.72889675 4074.7348808 -1620.87109375 4079.58203125 C-1619.89120697 4080.56259381 -1618.91146849 4081.54330459 -1617.93186951 4082.52415466 C-1615.8903611 4084.56712713 -1613.84708184 4086.60830669 -1611.80249023 4088.64819336 C-1609.20266346 4091.24232366 -1606.60735377 4093.84091934 -1604.01336765 4096.4408884 C-1601.99469354 4098.46320325 -1599.97361017 4100.4830969 -1597.9518261 4102.50230217 C-1596.53486426 4103.91828746 -1595.11988933 4105.33626015 -1593.70497131 4106.75428772 C-1589.22084444 4111.22231101 -1584.69633647 4115.56901027 -1579.87156677 4119.66893005 C-1576.62212903 4122.51054534 -1573.63778724 4125.62255515 -1570.6171875 4128.703125 C-1566.14626466 4133.22259685 -1561.66419231 4137.62893128 -1556.8046875 4141.734375 C-1554.40698029 4143.82126831 -1552.21528224 4146.09354225 -1549.99023438 4148.36132812 C-1548.18254587 4150.13885707 -1546.32044427 4151.80063197 -1544.3984375 4153.453125 C-1539.51082647 4157.70224406 -1534.81819301 4162.14455533 -1530.1171875 4166.59765625 C-1526.12284554 4170.36575618 -1522.06339028 4174.03617602 -1517.91650391 4177.63574219 C-1515.68131337 4179.58281454 -1513.49248747 4181.57806969 -1511.3046875 4183.578125 C-1507.86340545 4186.68841351 -1504.35397452 4189.66790812 -1500.7421875 4192.578125 C-1496.72892466 4195.82265017 -1492.89303366 4199.19059683 -1489.1171875 4202.703125 C-1484.58727425 4206.91335642 -1479.91426586 4210.87950346 -1475.09765625 4214.7578125 C-1471.54427556 4217.67316809 -1468.08008688 4220.68139249 -1464.6171875 4223.703125 C-1459.51428917 4228.1489814 -1454.36427214 4232.5157653 -1449.10546875 4236.77734375 C-1446.09389192 4239.22203553 -1443.09950823 4241.68646486 -1440.10791016 4244.15551758 C-1422.02188637 4259.09470731 -1422.02188637 4259.09470731 -1403.5625 4273.56640625 C-1400.31295284 4276.04592305 -1397.08914821 4278.55760937 -1393.86694336 4281.07250977 C-1371.68888326 4298.37933887 -1349.16088966 4315.17492375 -1326.32910156 4331.60742188 C-1324.14786423 4333.18099442 -1321.97162073 4334.76122094 -1319.796875 4336.34375 C-1296.49426164 4353.28681204 -1272.59358597 4369.29864243 -1248.59326172 4385.22875977 C-1245.73242196 4387.12830306 -1242.8744387 4389.03198465 -1240.02001953 4390.94116211 C-1232.39223975 4396.0429678 -1224.72798719 4401.07824373 -1216.9921875 4406.015625 C-1215.9194458 4406.70084229 -1214.8467041 4407.38605957 -1213.74145508 4408.09204102 C-1203.59286672 4414.56019879 -1193.3821683 4420.92156959 -1183.1171875 4427.203125 C-1181.51037109 4428.18732422 -1181.51037109 4428.18732422 -1179.87109375 4429.19140625 C-1164.72567317 4438.46148442 -1149.50121156 4447.57835146 -1134.12548828 4456.46289062 C-1131.03474508 4458.25081609 -1127.94877508 4460.04678284 -1124.86328125 4461.84375 C-1066.42549443 4495.80904075 -1006.16921138 4527.71888106 -944.59716797 4555.61914062 C-940.76358401 4557.36407487 -936.94200166 4559.13379562 -933.12109375 4560.90625 C-879.70621218 4585.63968858 -825.17068474 4607.95456038 -769.8994751 4628.18475342 C-767.23356449 4629.16052875 -764.56865024 4630.13898575 -761.90380859 4631.11767578 C-693.39187221 4656.23015156 -623.75416895 4677.91074267 -553.1171875 4696.203125 C-551.4760498 4696.62984497 -551.4760498 4696.62984497 -549.80175781 4697.06518555 C-454.64245369 4721.79855673 -357.98306413 4740.35632232 1055.50094604 4536.82141113 C1061.06279685 4534.10585648 1066.65786167 4531.46386046 1072.2578125 4528.828125 C1079.22809421 4525.53126109 1086.08523121 4522.06807011 1092.88720703 4518.43725586 C1098.10002549 4515.65705069 1103.33938345 4512.93520868 1108.6015625 4510.25 C1123.20302853 4502.79376647 1137.66522216 4495.20961587 1151.88671875 4487.04296875 C1156.31107649 4484.50768151 1160.79380608 4482.11227981 1165.3203125 4479.765625 C1173.10893271 4475.70864178 1180.67487132 4471.29909045 1188.24365234 4466.84790039 C1195.51424202 4462.57385749 1202.82608749 4458.37821885 1210.16110229 4454.21630859 C1230.4799338 4442.67803431 1250.31640607 4430.38284393 1270.09912109 4417.95214844 C1272.66760387 4416.33834291 1275.23796127 4414.72756538 1277.80859375 4413.1171875 C1310.9799742 4392.29630014 1343.4711132 4370.4013878 1375.50439453 4347.87451172 C1377.75219208 4346.29491595 1380.00271692 4344.71928764 1382.25390625 4343.14453125 C1392.10290044 4336.24133975 1401.8040385 4329.15074982 1411.46679688 4321.98974609 C1413.87720178 4320.20727407 1416.29304807 4318.43245942 1418.7109375 4316.66015625 C1428.55030402 4309.44448758 1438.30027279 4302.12496452 1447.96630859 4294.67871094 C1449.75537 4293.3012476 1451.54701052 4291.92723615 1453.33984375 4290.5546875 C1460.64004514 4284.96153634 1467.88067531 4279.29550343 1475.10351562 4273.60302734 C1476.89724347 4272.19177111 1478.69420371 4270.7847352 1480.4921875 4269.37890625 C1487.69728273 4263.74196728 1494.82308206 4258.02192793 1501.8828125 4252.203125 C1503.71556326 4250.70241325 1505.54890145 4249.20241862 1507.3828125 4247.703125 C1508.29289062 4246.95804688 1509.20296875 4246.21296875 1510.140625 4245.4453125 C1511.94605661 4243.9690764 1513.75330391 4242.49505764 1515.5625 4241.0234375 C1522.18592374 4235.62870686 1528.72064799 4230.13707459 1535.22998047 4224.60595703 C1536.85309317 4223.22834912 1538.4787429 4221.85380743 1540.10546875 4220.48046875 C1556.04332333 4207.03444843 1556.04332333 4207.03444843 1571.65625 4193.21484375 C1573.71385641 4191.35577831 1575.79128013 4189.52384142 1577.8828125 4187.703125 C1581.78210576 4184.30696636 1585.6191035 4180.84410657 1589.45703125 4177.37890625 C1591.51984038 4175.52868937 1593.5999362 4173.70367691 1595.6953125 4171.890625 C1600.39781162 4167.79367909 1604.95693453 4163.54332151 1609.53125 4159.3046875 C1612.59490859 4156.46601359 1615.67452563 4153.64546799 1618.7578125 4150.828125 C1632.97853136 4137.87578635 1632.97853136 4137.87578635 1646.66015625 4124.36328125 C1648.45219543 4122.62163333 1650.26399386 4121.02594964 1652.16796875 4119.41357422 C1658.58666667 4113.80905155 1664.52616408 4107.70352004 1670.54296875 4101.67578125 C1671.85983463 4100.3595904 1673.1768488 4099.0435479 1674.4940033 4097.72764587 C1677.24315324 4094.97996356 1679.99050369 4092.2304981 1682.73657227 4089.47973633 C1686.23871253 4085.97189937 1689.74532401 4082.46857193 1693.25330448 4078.96657658 C1695.97046105 4076.25305094 1698.68520993 4073.53712655 1701.39925957 4070.8204937 C1702.69058495 4069.52850604 1703.98264022 4068.23724745 1705.27546883 4066.94676399 C1714.17102457 4058.09437049 1714.17102457 4058.09437049 1722.54942322 4048.75669861 C1724.69183019 4046.26051316 1727.02939301 4044.00116992 1729.3828125 4041.703125 C1733.19150584 4037.95162706 1736.80248126 4034.09722731 1740.2734375 4030.03125 C1741.90867684 4028.17374512 1743.61763043 4026.43706491 1745.3828125 4024.703125 C1748.3282198 4021.80313147 1751.03744959 4018.76686069 1753.734375 4015.63671875 C1756.55901369 4012.43717347 1759.47031834 4009.32259636 1762.3828125 4006.203125 C1766.39886429 4001.89778615 1770.37410496 3997.57344828 1774.21875 3993.11328125 C1776.19821376 3990.84107989 1778.2286442 3988.61852628 1780.2578125 3986.390625 C1783.36810101 3982.94934295 1786.34759562 3979.43991202 1789.2578125 3975.828125 C1792.50233767 3971.81486216 1795.87028433 3967.97897116 1799.3828125 3964.203125 C1803.59304392 3959.67321175 1807.55919096 3955.00020336 1811.4375 3950.18359375 C1814.35285668 3946.63021172 1817.36111068 3943.16605261 1820.3828125 3939.703125 C1825.67191799 3933.63134718 1830.82360058 3927.46850665 1835.8828125 3921.203125 C1837.41336414 3919.31856821 1838.94533709 3917.43517163 1840.47729492 3915.55175781 C1842.14627701 3913.4990649 1843.81346618 3911.44492566 1845.48046875 3909.390625 C1847.7332177 3906.6156214 1849.99128555 3903.84508458 1852.25390625 3901.078125 C1858.02600656 3894.01261374 1863.71194885 3886.90253404 1869.24609375 3879.6484375 C1871.72561055 3876.39889034 1874.23729687 3873.17508571 1876.75219727 3869.95288086 C1894.05125303 3847.78478201 1910.83988937 3825.26725032 1927.26513672 3802.44580078 C1928.90490623 3800.1724952 1930.55112559 3797.90399571 1932.19921875 3795.63671875 C1938.2651494 3787.28479039 1944.2340786 3778.87979569 1950.04931641 3770.35131836 C1951.82334156 3767.75095389 1953.6031162 3765.15479927 1955.39208984 3762.56469727 C1961.80193136 3753.28313591 1968.11147409 3743.9383826 1974.36230469 3734.54907227 C1975.88043804 3732.26919089 1977.40103727 3729.99096863 1978.921875 3727.71289062 C1985.66528036 3717.60026126 1992.30916451 3707.42683876 1998.8828125 3697.203125 C1999.51493652 3696.22110107 2000.14706055 3695.23907715 2000.79833984 3694.22729492 C2031.34262869 3646.66650133 2059.91888654 3597.80063071 2086.7265625 3548.04296875 C2088.79160602 3544.21233845 2090.8743093 3540.39236518 2092.9765625 3536.58203125 C2098.43457564 3526.68063562 2103.72738747 3516.72929746 2108.70361328 3506.57568359 C2111.57029308 3500.74466156 2114.57030793 3494.9941124 2117.61328125 3489.25390625 C2122.7960495 3479.4563087 2127.72300884 3469.54522129 2132.5703125 3459.578125 C2132.99835175 3458.70004181 2133.42639099 3457.82195862 2133.86740112 3456.91726685 C2141.32833088 3441.59811441 2148.48715331 3426.15850398 2155.45071411 3410.6078949 C2157.56349234 3405.8948303 2159.72968735 3401.20855355 2161.91186523 3396.52734375 C2202.04435242 3310.17035402 2235.54619755 3219.60899845 2292.8828125 3023.203125 C2293.16513733 3022.10152039 2293.44746216 3020.99991577 2293.73834229 3019.8649292 C2317.23967586 2928.01661303 2335.10491322 2834.83255587 2363.8828125 2548.203125 C2363.93501953 2547.09469238 2363.98722656 2545.98625977 2364.04101562 2544.84423828 C2367.3182415 2474.75813315 2367.18364292 2404.28464497 2363.8828125 2334.203125 C2363.83189453 2333.09727051 2363.78097656 2331.99141602 2363.72851562 2330.85205078 C2358.47559008 2217.26584745 2344.62512585 2104.26419853 2301.66412354 1894.44232178 C2300.90685629 1891.30280689 2300.15319611 1888.1624429 2299.39990234 1885.02197266 C2291.41968765 1851.84431961 2282.36729539 1818.98009821 2272.8828125 1786.203125 C2272.60177673 1785.23175598 2272.32074097 1784.26038696 2272.03118896 1783.25958252 C2248.10638054 1700.77390671 2219.07462889 1619.66807004 2180.8828125 1529.203125 C2180.49283081 1528.28651093 2180.49283081 1528.28651093 2180.0949707 1527.35137939 C2171.64979622 1507.50863632 2162.79658536 1487.86425821 2153.76269531 1468.28320312 C2152.08278668 1464.64081226 2150.41524731 1460.99286983 2148.75 1457.34375 C2110.37052361 1373.55942279 2065.97515108 1292.40653391 2009.69580078 1202.08496094 C2008.53366745 1200.23769163 2007.37304688 1198.38946925 2006.21435547 1196.54003906 C1995.91767582 1180.11386512 1985.15031733 1164.00709114 1974.35986328 1147.90332031 C1972.07985065 1144.49968727 1969.80869118 1141.09025314 1967.5390625 1137.6796875 C1964.64235094 1133.33278911 1961.72301932 1129.00356268 1958.7578125 1124.703125 C1958.30390137 1124.04425293 1957.84999023 1123.38538086 1957.38232422 1122.70654297 C1947.57281151 1108.49181716 1937.62723729 1094.38224562 1927.47851562 1080.40771484 C1925.89211593 1078.21597843 1924.31567479 1076.01742692 1922.7421875 1073.81640625 C1915.58815045 1063.82374634 1908.21907534 1054.01392939 1900.74609375 1044.2578125 C1897.30315041 1039.76184354 1893.89696682 1035.23971849 1890.5078125 1030.703125 C1885.36060668 1023.8219071 1880.15617519 1016.98815757 1874.8828125 1010.203125 C1874.24375977 1009.38062256 1874.24375977 1009.38062256 1873.59179688 1008.54150391 C1867.12948181 1000.23862578 1860.53506898 992.04893836 1853.88671875 983.89453125 C1851.45165071 980.90669442 1849.03543837 977.90465467 1846.6328125 974.890625 C1840.20054022 966.83349897 1833.64229011 958.89005311 1826.96508789 951.03540039 C1824.10471991 947.66519484 1821.29047265 944.26313038 1818.5078125 940.828125 C1813.86545156 935.12654445 1809.04774123 929.58609174 1804.21875 924.04296875 C1801.52760087 920.95229109 1798.86097108 917.84173689 1796.203125 914.72241211 C1791.27000086 908.93381906 1786.25013746 903.25041032 1781.109375 897.64453125 C1779.19148043 895.54157667 1777.30905205 893.41643344 1775.4453125 891.265625 C1772.01309699 887.31411447 1768.46897299 883.46795965 1764.92333984 879.61865234 C1762.43184192 876.90894591 1759.97135426 874.18069631 1757.5703125 871.390625 C1753.03164818 866.15704557 1748.25232823 861.14328892 1743.515625 856.08984375 C1740.68441302 853.06733366 1737.87611124 850.02496899 1735.07763672 846.97216797 C1730.53791756 842.0206829 1725.94204856 837.17064893 1721.11328125 832.49609375 C1719.35714023 830.69074387 1717.75224809 828.87434812 1716.12988281 826.95458984 C1710.31199936 820.29100443 1703.95638687 814.133102 1697.69921875 807.88671875 C1696.3157671 806.50259219 1694.93246382 805.11831732 1693.54930115 803.73390198 C1690.66038388 800.84351658 1687.76968174 797.9549316 1684.87768555 795.06762695 C1681.18824642 791.38388455 1677.50331574 787.69567012 1673.81971836 784.0060873 C1670.96722268 781.14996207 1668.11232973 778.29624262 1665.25672722 775.44322395 C1663.89775329 774.08491268 1662.53950951 772.72587047 1661.18203926 771.36605644 C1652.05068728 762.16994288 1652.05068728 762.16994288 1642.41331482 753.51344299 C1638.99093204 750.58341821 1635.93394466 747.26753746 1632.7890625 744.046875 C1629.98249516 741.2363253 1626.99454604 738.65869062 1623.99316406 736.05957031 C1620.41105333 732.90844005 1616.96679903 729.61307447 1613.5078125 726.328125 C1607.37442709 720.52954152 1601.18777337 714.81487028 1594.8828125 709.203125 C1593.2994618 707.76564413 1591.71612908 706.32814345 1590.1328125 704.890625 C1585.53696543 700.74931226 1580.84240637 696.73234924 1576.13256836 692.72216797 C1572.42250884 689.55306427 1568.78673561 686.31973426 1565.1953125 683.015625 C1560.78659683 678.96891531 1556.22215575 675.17558785 1551.56640625 671.41796875 C1548.93572693 669.24679673 1546.40338826 667.00071143 1543.8828125 664.703125 C1539.64114224 660.8422031 1535.26247323 657.19762797 1530.8046875 653.58984375 C1527.60870012 650.9792177 1524.46219007 648.31581432 1521.3203125 645.640625 C1516.82263228 641.8183822 1512.27608478 638.07495434 1507.6484375 634.41015625 C1505.52149309 632.71280655 1503.40914113 631.00222446 1501.3046875 629.27734375 C1493.69410426 623.04316279 1486.00198707 616.94946399 1478.16308594 611.00463867 C1473.57220688 607.51642967 1469.05218719 603.95498097 1464.5703125 600.328125 C1458.07003874 595.08114643 1451.41837775 590.0542296 1444.72094727 585.06225586 C1438.44680718 580.385083 1432.22059168 575.64890738 1426.0078125 570.890625 C1418.65773463 565.27257348 1411.23190329 559.7999276 1403.66992188 554.47216797 C1400.98940472 552.56870784 1398.33369817 550.631493 1395.67480469 548.69799805 C1384.19793847 540.35929816 1372.55571912 532.2642354 1360.8828125 524.203125 C1359.72289795 523.4002002 1359.72289795 523.4002002 1358.53955078 522.58105469 C1337.26807462 507.86745146 1315.7516095 493.4342969 1293.94726562 479.52099609 C1291.59501171 478.01940354 1289.24690358 476.51141556 1286.8984375 475.00390625 C1239.08838136 444.37851058 1189.96960319 415.74425914 1139.96386719 388.86279297 C1136.88343062 387.20345796 1133.80859735 385.53409639 1130.734375 383.86328125 C1102.21055411 368.41215622 1073.3679696 353.35390341 1043.96191406 339.64697266 C1040.22659733 337.89541357 1036.50409985 336.11770455 1032.78125 334.33984375 C1011.6414046 324.25866647 990.35004869 314.56631802 968.8828125 305.203125 C968.15727173 304.8864386 967.43173096 304.5697522 966.6842041 304.24346924 C874.80418577 264.16999693 780.27073461 229.97164223 118.37609863 112.29168701 C116.02755209 112.20826618 113.67930578 112.11914791 111.33105469 112.02783203 C29.91877587 108.90997051 -51.86946345 111.27122972 -960.1171875 334.203125 Z " fill="#6D32FC" transform="translate(2464.1171875,59.796875)"/>
<path d="M0 0 C1.10036596 0.93321123 2.19928789 1.86812525 3.29762268 2.8037262 C3.90974389 3.32416787 4.5218651 3.84460955 5.15253544 4.38082218 C8.0774584 6.94431947 10.79899008 9.69541761 13.52734375 12.46484375 C14.4162606 13.35944054 14.4162606 13.35944054 15.32313538 14.27210999 C17.82533674 16.79045153 20.3214814 19.31476382 22.81811523 21.83862305 C24.65655481 23.69532925 26.49813259 25.54888353 28.33984375 27.40234375 C28.88905991 27.95985825 29.43827606 28.51737274 30.00413513 29.09178162 C32.81177913 31.91668383 35.6763361 34.61242085 38.70265198 37.20265198 C43.02639054 40.97079232 47.08564187 44.95845714 51.125 49.02734375 C51.89360352 49.79740753 52.66220703 50.56747131 53.45410156 51.36087036 C55.10952005 53.02007108 56.76378314 54.68042521 58.41699219 56.34182739 C61.03861386 58.97630318 63.66342578 61.60756325 66.2890625 64.23803711 C72.33474534 70.29607016 78.37574831 76.35876204 84.41650391 82.42170715 C90.40116545 88.42823831 96.38784325 94.43274659 102.37792969 100.43386841 C104.95454318 103.01692943 107.52810829 105.603001 110.1015625 108.18920898 C111.69255894 109.78384047 113.28369737 111.37833031 114.875 112.97265625 C115.93509277 114.0404985 115.93509277 114.0404985 117.01660156 115.12991333 C120.25373249 118.36738356 123.5276678 121.50264376 126.9942627 124.4942627 C131.26507137 128.18067916 135.24323639 132.11691196 139.21679688 136.11914062 C139.99515396 136.89895798 140.77351105 137.67877533 141.57545471 138.48222351 C143.25215386 140.16270537 144.92769761 141.84434068 146.60218811 143.52702332 C149.25741578 146.19510293 151.91583197 148.85996889 154.57507324 151.52404785 C160.69816102 157.65948705 166.81656876 163.79958365 172.93473053 169.93993378 C178.99592336 176.02299455 185.05913114 182.10403348 191.12574768 188.1816864 C193.73559931 190.79798651 196.34240327 193.41729699 198.94909668 196.03674316 C200.56031614 197.6515976 202.17167754 199.26631043 203.78320312 200.88085938 C204.85732201 201.96272774 204.85732201 201.96272774 205.95314026 203.06645203 C209.84356071 206.95727521 213.84195789 210.63842842 218.0066452 214.23249054 C221.52373126 217.35109386 224.81439969 220.69254232 228.125 224.02734375 C228.89360352 224.79740753 229.66220703 225.56747131 230.45410156 226.36087036 C232.10952005 228.02007108 233.76378314 229.68042521 235.41699219 231.34182739 C238.03861386 233.97630318 240.66342578 236.60756325 243.2890625 239.23803711 C249.33474534 245.29607016 255.37574831 251.35876204 261.41650391 257.42170715 C267.40116545 263.42823831 273.38784325 269.43274659 279.37792969 275.43386841 C281.95454318 278.01692943 284.52810829 280.603001 287.1015625 283.18920898 C288.69255894 284.78384047 290.28369737 286.37833031 291.875 287.97265625 C292.58172852 288.68455109 293.28845703 289.39644592 294.01660156 290.12991333 C297.25373249 293.36738356 300.5276678 296.50264376 303.9942627 299.4942627 C308.26507137 303.18067916 312.24323639 307.11691196 316.21679688 311.11914062 C316.99515396 311.89895798 317.77351105 312.67877533 318.57545471 313.48222351 C320.25215386 315.16270537 321.92769761 316.84434068 323.60218811 318.52702332 C326.25741578 321.19510293 328.91583197 323.85996889 331.57507324 326.52404785 C337.69816102 332.65948705 343.81656876 338.79958365 349.93473053 344.93993378 C355.99592336 351.02299455 362.05913114 357.10403348 368.12574768 363.1816864 C370.73559931 365.79798651 373.34240327 368.41729699 375.94909668 371.03674316 C377.56031614 372.6515976 379.17167754 374.26631043 380.78320312 375.88085938 C381.49928238 376.60210495 382.21536163 377.32335052 382.95314026 378.06645203 C386.84356071 381.95727521 390.84195789 385.63842842 395.0066452 389.23249054 C398.52373126 392.35109386 401.81439969 395.69254232 405.125 399.02734375 C405.89360352 399.79740753 406.66220703 400.56747131 407.45410156 401.36087036 C409.10952005 403.02007108 410.76378314 404.68042521 412.41699219 406.34182739 C415.03861386 408.97630318 417.66342578 411.60756325 420.2890625 414.23803711 C426.33474534 420.29607016 432.37574831 426.35876204 438.41650391 432.42170715 C444.40116545 438.42823831 450.38784325 444.43274659 456.37792969 450.43386841 C458.95454318 453.01692943 461.52810829 455.603001 464.1015625 458.18920898 C465.69255894 459.78384047 467.28369737 461.37833031 468.875 462.97265625 C469.58172852 463.68455109 470.28845703 464.39644592 471.01660156 465.12991333 C474.25373249 468.36738356 477.5276678 471.50264376 480.9942627 474.4942627 C485.26507137 478.18067916 489.24323639 482.11691196 493.21679688 486.11914062 C493.99515396 486.89895798 494.77351105 487.67877533 495.57545471 488.48222351 C497.25215386 490.16270537 498.92769761 491.84434068 500.60218811 493.52702332 C503.25741578 496.19510293 505.91583197 498.85996889 508.57507324 501.52404785 C514.69816102 507.65948705 520.81656876 513.79958365 526.93473053 519.93993378 C532.99592336 526.02299455 539.05913114 532.10403348 545.12574768 538.1816864 C547.73559931 540.79798651 550.34240327 543.41729699 552.94909668 546.03674316 C554.56031614 547.6515976 556.17167754 549.26631043 557.78320312 550.88085938 C558.49928238 551.60210495 559.21536163 552.32335052 559.95314026 553.06645203 C563.84356071 556.95727521 567.84195789 560.63842842 572.0066452 564.23249054 C575.52373126 567.35109386 578.81439969 570.69254232 582.125 574.02734375 C582.89360352 574.79740753 583.66220703 575.56747131 584.45410156 576.36087036 C586.10952005 578.02007108 587.76378314 579.68042521 589.41699219 581.34182739 C592.03861386 583.97630318 594.66342578 586.60756325 597.2890625 589.23803711 C603.33474534 595.29607016 609.37574831 601.35876204 615.41650391 607.42170715 C621.40116545 613.42823831 627.38784325 619.43274659 633.37792969 625.43386841 C635.95454318 628.01692943 638.52810829 630.603001 641.1015625 633.18920898 C642.69255894 634.78384047 644.28369737 636.37833031 645.875 637.97265625 C646.58172852 638.68455109 647.28845703 639.39644592 648.01660156 640.12991333 C648.68916992 640.80255219 649.36173828 641.47519104 650.0546875 642.16821289 C650.91296143 643.02981773 650.91296143 643.02981773 651.78857422 643.90882874 C653.8316478 645.94141589 653.8316478 645.94141589 655.6657871 647.17130029 C660.80886959 651.0348366 663.61383356 655.4433415 666.65755653 660.98069191 C682.64452879 689.75113918 706.35450921 719.72155448 739 730 C768.59528166 737.61742071 801.772061 733.93059544 831.87255859 731.99365234 C832.97896147 731.92341506 834.08536435 731.85317779 835.22529459 731.7808121 C861.44077578 730.10420558 887.60626591 727.91431807 913.76772722 725.55211382 C945.49232804 722.69071754 977.23136379 720.61584017 1009.03515518 718.86248214 C1011.04141906 718.75183432 1013.04766022 718.64078206 1015.05389686 718.52964156 C1030.66823309 717.66533974 1046.28384251 716.8261896 1061.90043338 716.00369584 C1071.60221545 715.49266812 1081.30337238 714.97125465 1091.00405967 714.43985121 C1161.34843062 710.58668118 1231.72026496 707.08258301 1483.43359375 704.8671875 C1484.12086253 704.88363642 1484.8081313 704.90008534 1485.5162264 704.91703271 C1682.58502196 709.65302118 1682.58502196 709.65302118 1953.66455078 885.00634766 C1971.83364606 904.16458378 1988.92860299 924.26508417 2005.81431617 944.55235924 C2007.98479762 947.1566965 2010.16216395 949.75523625 2012.33929544 952.35401443 C2065.97524192 1016.40200848 2114.48657856 1083.202301 2157.03708553 1155.14865875 C2157.44529287 1155.83721835 2157.85350021 1156.52577795 2158.27407747 1157.23520299 C2161 1161.8783201 2161 1161.8783201 2161 1163 C2112.95475263 1163.00550106 2064.90950523 1163.01077042 2016.86425781 1163.01586914 C2015.45394503 1163.01601884 2015.45394503 1163.01601884 2014.01514108 1163.01617156 C1913.24965717 1163.02686106 1812.48417325 1163.03608358 1711.71868896 1163.04234314 C1709.47982934 1163.04248259 1707.24096971 1163.04262204 1705.00211008 1163.04276149 C1658.00546796 1163.04568433 1611.00882583 1163.04840103 1564.01218368 1163.05087968 C1540.40340214 1163.05212505 1516.7946206 1163.05341002 1493.18583907 1163.05473244 C1489.62459488 1163.05493169 1486.06335069 1163.05512981 1482.5021065 1163.05532788 C1427.67899613 1163.05838703 1372.85588598 1163.06229425 1318.03277588 1163.06866455 C1316.85447701 1163.06880145 1315.67617815 1163.06893835 1314.46217325 1163.0690794 C1295.46511071 1163.0712917 1276.46804817 1163.07357534 1257.47098563 1163.07586844 C1202.73812759 1163.08247406 1148.00526974 1163.08855025 1093.27241135 1163.09113979 C1092.14631483 1163.09119333 1091.02021831 1163.09124686 1089.85999765 1163.09130202 C1065.13643462 1163.09246792 1040.41287158 1163.09336271 1015.68930852 1163.09400098 C1005.74061354 1163.0942626 995.79191856 1163.09456322 985.84322357 1163.09487724 C984.20998558 1163.09492738 984.20998558 1163.09492738 982.54375289 1163.09497854 C947.49111677 1163.09607405 912.43848193 1163.10034196 877.38584632 1163.10628221 C842.06111424 1163.112254 806.73638338 1163.11509731 771.41165078 1163.11362399 C766.52419671 1163.11342092 761.63674263 1163.11325353 756.74928856 1163.11310768 C755.31223548 1163.11306286 755.31223548 1163.11306286 753.84615102 1163.11301713 C738.70878807 1163.11263727 723.57142774 1163.11561402 708.4340655 1163.12000986 C693.52954228 1163.12426849 678.62502243 1163.12492979 663.72049889 1163.12183181 C654.99553925 1163.12012501 646.27059035 1163.12111271 637.54563198 1163.126217 C631.732283 1163.12934032 625.91894161 1163.12875398 620.10559285 1163.12530107 C616.82216361 1163.12345051 613.53877169 1163.12360498 610.25534158 1163.12723524 C603.3278927 1163.13440277 596.4019941 1163.11176525 589.47493555 1163.03526978 C587.05535876 1163.01071164 584.63568864 1162.99452094 582.21600674 1162.98480352 C578.40386294 1162.96323432 574.59388177 1162.90424064 570.78230453 1162.83670038 C569.62642855 1162.83573161 568.47055258 1162.83476284 567.27965006 1162.83376471 C557.79220945 1162.60055752 552.37805665 1159.68483819 545.88494873 1152.91830444 C544.72914081 1151.62130617 543.57481636 1150.3229846 542.421875 1149.0234375 C541.14203602 1147.69044833 539.85583814 1146.36353925 538.56378174 1145.04238892 C535.22183532 1141.59317452 531.96859845 1138.07167568 528.72998047 1134.52563477 C525.42408976 1130.93480971 522.04198892 1127.41744176 518.6640625 1123.89453125 C514.86360462 1119.92380353 511.07149322 1115.94751667 507.33612061 1111.91537476 C506.76726135 1111.30251617 506.1984021 1110.68965759 505.61230469 1110.05822754 C504.56865939 1108.93126145 503.5281899 1107.80133976 502.49200439 1106.66751099 C499.86119593 1103.82837353 497.14350966 1101.20942074 494.20916748 1098.68338013 C489.47389311 1094.60293441 485.08612066 1090.21124918 480.68164062 1085.77929688 C479.30720443 1084.40261918 477.93276811 1083.02594162 476.55832672 1081.6492691 C475.09641285 1080.18400643 473.63575506 1078.71750233 472.17546082 1077.25062561 C469.11737135 1074.17889507 466.05536505 1071.11108852 462.99279785 1068.04382324 C455.94066631 1060.97970258 448.89358143 1053.91055451 441.84654999 1046.84134674 C435.38225401 1040.35681318 428.91686898 1033.87337516 422.44741011 1027.39399195 C419.40995684 1024.35158961 416.37495051 1021.3067744 413.34186554 1018.2600174 C411.90609176 1016.81854685 410.46915023 1015.37825245 409.0316925 1013.9384613 C407.28866538 1012.19259156 405.54741254 1010.44494763 403.80839539 1008.69508362 C400.29467056 1005.18104202 396.76657388 1001.74308291 393 998.5 C388.33473278 994.48312713 384.01943306 990.14414563 379.68164062 985.77929688 C378.30720443 984.40261918 376.93276811 983.02594162 375.55832672 981.6492691 C374.09641285 980.18400643 372.63575506 978.71750233 371.17546082 977.25062561 C368.11737135 974.17889507 365.05536505 971.11108852 361.99279785 968.04382324 C354.94066631 960.97970258 347.89358143 953.91055451 340.84654999 946.84134674 C334.38225401 940.35681318 327.91686898 933.87337516 321.44741011 927.39399195 C318.40995684 924.35158961 315.37495051 921.3067744 312.34186554 918.2600174 C310.90609176 916.81854685 309.46915023 915.37825245 308.0316925 913.9384613 C306.28866538 912.19259156 304.54741254 910.44494763 302.80839539 908.69508362 C299.29467056 905.18104202 295.76657388 901.74308291 292 898.5 C287.33473278 894.48312713 283.01943306 890.14414563 278.68164062 885.77929688 C277.30720443 884.40261918 275.93276811 883.02594162 274.55832672 881.6492691 C273.09641285 880.18400643 271.63575506 878.71750233 270.17546082 877.25062561 C267.11737135 874.17889507 264.05536505 871.11108852 260.99279785 868.04382324 C253.94066631 860.97970258 246.89358143 853.91055451 239.84654999 846.84134674 C233.38225401 840.35681318 226.91686898 833.87337516 220.44741011 827.39399195 C217.40995684 824.35158961 214.37495051 821.3067744 211.34186554 818.2600174 C209.90609176 816.81854685 208.46915023 815.37825245 207.0316925 813.9384613 C205.28866538 812.19259156 203.54741254 810.44494763 201.80839539 808.69508362 C198.29467056 805.18104202 194.76657388 801.74308291 191 798.5 C186.33473278 794.48312713 182.01943306 790.14414563 177.68164062 785.77929688 C176.30720443 784.40261918 174.93276811 783.02594162 173.55832672 781.6492691 C172.09641285 780.18400643 170.63575506 778.71750233 169.17546082 777.25062561 C166.11737135 774.17889507 163.05536505 771.11108852 159.99279785 768.04382324 C152.94066631 760.97970258 145.89358143 753.91055451 138.84654999 746.84134674 C132.38225401 740.35681318 125.91686898 733.87337516 119.44741011 727.39399195 C116.40995684 724.35158961 113.37495051 721.3067744 110.34186554 718.2600174 C108.90609176 716.81854685 107.46915023 715.37825245 106.0316925 713.9384613 C104.28866538 712.19259156 102.54741254 710.44494763 100.80839539 708.69508362 C100.02644302 707.91306076 99.24449066 707.1310379 98.43884277 706.32531738 C97.77079369 705.65504768 97.1027446 704.98477798 96.4144516 704.29419708 C90.38602207 698.56602037 84.03978543 693.46015984 77.33054161 688.55813408 C41.33115739 661.73391732 -0.18243619 628.77006191 -7.11785258 581.79165857 C-8.85786631 569.01094516 -9.51815656 556.22007442 -9.76318359 543.33251953 C-9.77779897 542.59400076 -9.79241435 541.85548198 -9.80747262 541.09458385 C-10.17112219 521.45237385 -9.66019824 501.85448882 -8.90425601 482.227848 C-8.46286962 470.57176469 -8.24029037 458.92569254 -8.1594429 447.26171494 C-8.15353129 446.42334136 -8.14761968 445.58496778 -8.14152894 444.72118894 C-8.11241667 440.46038562 -8.08650348 436.1995692 -8.0618176 431.93873821 C-7.88299311 402.05511419 -7.30898455 372.19165579 -6.48779297 342.31933594 C-5.69292131 313.37020341 -5.08629973 284.42666643 -4.72412109 255.46875 C-4.71280984 254.5701812 -4.70149859 253.6716124 -4.68984458 252.74581424 C-4.57641411 243.71883114 -4.46669975 234.69180601 -4.35970268 225.66474448 C-4.14181456 207.28921671 -3.89918786 188.91404328 -3.64151001 170.53903198 C-3.62379961 169.27282826 -3.62379961 169.27282826 -3.60573141 167.98104466 C-2.81960193 111.97892561 -1.4557269 55.98822841 0 0 Z " fill="#A17BFF" transform="translate(1927,1338)"/>
</svg>
