<svg xmlns="http://www.w3.org/2000/svg" width="64" height="64" viewBox="0 0 64 64" version="1.1"><path d="M 20 17 C 18.223 18.777, 18 20.333, 18 30.935 C 18 46.175, 18.639 48, 23.975 48 C 28 48, 28 48, 28 37.500 C 28 27, 28 27, 35.777 27 C 45.814 27, 48 25.649, 48 19.443 C 48 15, 48 15, 35 15 C 23.333 15, 21.795 15.205, 20 17 M 34.571 33.571 C 33.676 34.467, 33 36.833, 33 39.071 C 33 42.879, 33.106 43, 36.429 43 C 40.941 43, 43 40.784, 43 35.929 C 43 32.121, 42.894 32, 39.571 32 C 37.686 32, 35.436 32.707, 34.571 33.571" stroke="none" fill="#f0f0f0" fill-rule="evenodd"/><path d="M 20.500 3.484 C -4.629 13.690, -5.355 49.080, 19.329 60.573 C 27.258 64.264, 37.650 64.015, 45.811 59.936 C 53.076 56.306, 59.215 49.752, 61.425 43.266 C 62.291 40.724, 63 35.421, 63 31.482 C 63 9.597, 41.051 -4.862, 20.500 3.484 M 20 17 C 18.223 18.777, 18 20.333, 18 30.935 C 18 46.175, 18.639 48, 23.975 48 C 28 48, 28 48, 28 37.500 C 28 27, 28 27, 35.777 27 C 45.814 27, 48 25.649, 48 19.443 C 48 15, 48 15, 35 15 C 23.333 15, 21.795 15.205, 20 17 M 34.571 33.571 C 33.676 34.467, 33 36.833, 33 39.071 C 33 42.879, 33.106 43, 36.429 43 C 40.941 43, 43 40.784, 43 35.929 C 43 32.121, 42.894 32, 39.571 32 C 37.686 32, 35.436 32.707, 34.571 33.571" stroke="none" fill="#050505" fill-rule="evenodd"/></svg>