<svg xmlns="http://www.w3.org/2000/svg" width="64" height="64" viewBox="0 0 64 64" version="1.1"><path d="M 28 15.500 C 28 23, 28 23, 32 23 C 36 23, 36 23, 36 15.500 C 36 8, 36 8, 32 8 C 28 8, 28 8, 28 15.500 M 11.413 19.492 C 9.329 22.674, 9.919 24.045, 14.390 26.407 C 17.930 28.278, 18.068 28.278, 21.500 26.430 C 23.425 25.393, 25 24.303, 25 24.006 C 25 23.425, 14.561 17, 13.617 17 C 13.303 17, 12.311 18.122, 11.413 19.492 M 44.250 20.275 C 41.362 22.039, 39 23.721, 39 24.014 C 39 24.306, 40.516 25.362, 42.369 26.360 C 45.662 28.133, 45.832 28.126, 49.869 26.067 C 52.141 24.908, 54 23.394, 54 22.702 C 54 21.195, 51.174 16.986, 50.193 17.034 C 49.812 17.052, 47.138 18.511, 44.250 20.275 M 28 29.500 C 28 29.775, 28.225 30, 28.500 30 C 28.775 30, 29 29.775, 29 29.500 C 29 29.225, 28.775 29, 28.500 29 C 28.225 29, 28 29.225, 28 29.500 M 21 33.500 C 21 33.775, 21.225 34, 21.500 34 C 21.775 34, 22 33.775, 22 33.500 C 22 33.225, 21.775 33, 21.500 33 C 21.225 33, 21 33.225, 21 33.500 M 42 42.500 C 42 42.775, 42.225 43, 42.500 43 C 42.775 43, 43 42.775, 43 42.500 C 43 42.225, 42.775 42, 42.500 42 C 42.225 42, 42 42.225, 42 42.500 M 16 45.500 C 16 45.775, 16.225 46, 16.500 46 C 16.775 46, 17 45.775, 17 45.500 C 17 45.225, 16.775 45, 16.500 45 C 16.225 45, 16 45.225, 16 45.500 M 14 46.500 C 14 46.775, 14.225 47, 14.500 47 C 14.775 47, 15 46.775, 15 46.500 C 15 46.225, 14.775 46, 14.500 46 C 14.225 46, 14 46.225, 14 46.500 M 49 46.500 C 49 46.775, 49.225 47, 49.500 47 C 49.775 47, 50 46.775, 50 46.500 C 50 46.225, 49.775 46, 49.500 46 C 49.225 46, 49 46.225, 49 46.500" stroke="none" fill="#15ab5a" fill-rule="evenodd"/><path d="M 20.523 34.019 C 15.035 37.234, 10.380 40.359, 10.179 40.964 C 9.977 41.569, 10.557 43.200, 11.467 44.589 C 13.121 47.114, 13.121 47.114, 20.561 43.031 C 28 38.948, 28 38.948, 28 47.474 C 28 56, 28 56, 32 56 C 36 56, 36 56, 36 47.430 C 36 38.860, 36 38.860, 43.424 42.958 C 50.847 47.056, 50.847 47.056, 52.424 44.805 C 53.291 43.568, 54 42.021, 54 41.369 C 54 40.020, 33.858 27.954, 31.828 28.087 C 31.097 28.135, 26.010 30.804, 20.523 34.019" stroke="none" fill="#f9f9f9" fill-rule="evenodd"/><path d="M 2.455 2.455 C 0 4.909, 0 4.909, -0 31.909 C -0 58.909, -0 58.909, 2.545 61.455 C 5.091 64, 5.091 64, 32.144 64 C 67.993 64, 65 67.031, 65 30.728 C 65 15.844, 64.748 3.919, 64.439 4.227 C 64.131 4.536, 62.802 3.711, 61.485 2.394 C 59.091 0, 59.091 0, 32 0 C 4.909 0, 4.909 0, 2.455 2.455 M 0.439 32 C 0.439 47.125, 0.578 53.313, 0.748 45.750 C 0.917 38.188, 0.917 25.813, 0.748 18.250 C 0.578 10.688, 0.439 16.875, 0.439 32 M 28 15.500 C 28 23, 28 23, 32 23 C 36 23, 36 23, 36 15.500 C 36 8, 36 8, 32 8 C 28 8, 28 8, 28 15.500 M 11.413 19.492 C 9.329 22.674, 9.919 24.045, 14.390 26.407 C 17.930 28.278, 18.068 28.278, 21.500 26.430 C 23.425 25.393, 25 24.303, 25 24.006 C 25 23.425, 14.561 17, 13.617 17 C 13.303 17, 12.311 18.122, 11.413 19.492 M 44.250 20.275 C 41.362 22.039, 39 23.721, 39 24.014 C 39 24.306, 40.516 25.362, 42.369 26.360 C 45.662 28.133, 45.832 28.126, 49.869 26.067 C 52.141 24.908, 54 23.394, 54 22.702 C 54 21.195, 51.174 16.986, 50.193 17.034 C 49.812 17.052, 47.138 18.511, 44.250 20.275 M 20.250 34.135 C 14.612 37.465, 10 40.772, 10 41.484 C 10 42.196, 10.825 43.798, 11.834 45.044 C 13.669 47.309, 13.669 47.309, 20.584 43.164 C 27.500 39.019, 27.500 39.019, 27.789 47.510 C 28.078 56, 28.078 56, 32 56 C 35.922 56, 35.922 56, 36.211 47.538 C 36.500 39.076, 36.500 39.076, 43.471 43.124 C 50.443 47.171, 50.443 47.171, 52.221 44.975 C 53.200 43.767, 54 42.195, 54 41.481 C 54 40.082, 34.024 27.973, 31.828 28.041 C 31.097 28.063, 25.888 30.806, 20.250 34.135" stroke="none" fill="#040404" fill-rule="evenodd"/></svg>