<svg xmlns="http://www.w3.org/2000/svg" width="64" height="64" viewBox="0 0 64 64" version="1.1"><path d="M 15.571 18.571 C 14.707 19.436, 14.011 21.123, 14.023 22.321 C 14.054 25.176, 30.383 53.500, 31.998 53.500 C 32.682 53.500, 37.012 47.067, 41.621 39.205 C 54.145 17.839, 53.782 17, 32 17 C 19.827 17, 16.859 17.284, 15.571 18.571 M 18 22.100 C 18 23.283, 28.949 43, 29.605 43 C 29.822 43, 30 38.050, 30 32 L 30 21 24 21 C 20.303 21, 18 21.422, 18 22.100 M 34 32.200 C 34 38.495, 34.375 42.984, 34.857 42.450 C 36.755 40.346, 46 23.717, 46 22.406 C 46 21.354, 44.488 21, 40 21 L 34 21 34 32.200" stroke="none" fill="#ecf5fa" fill-rule="evenodd"/><path d="M 20.597 1.571 C 12.356 4.591, 4.442 12.660, 1.475 21.070 C -0.490 26.639, -0.395 37.478, 1.671 43.572 C 3.969 50.346, 13.654 60.031, 20.428 62.329 C 26.667 64.445, 37.250 64.475, 43.357 62.394 C 49.491 60.304, 58.242 52.279, 60.999 46.216 C 62.178 43.622, 63.561 40.719, 64.072 39.764 C 65.236 37.586, 65.306 22.693, 64.148 23.408 C 63.680 23.698, 62.737 22.064, 62.052 19.778 C 60.279 13.863, 50.094 3.884, 43.572 1.671 C 37.572 -0.364, 26.015 -0.414, 20.597 1.571 M 15.571 18.571 C 14.707 19.436, 14.011 21.123, 14.023 22.321 C 14.054 25.176, 30.383 53.500, 31.998 53.500 C 32.682 53.500, 37.012 47.067, 41.621 39.205 C 54.145 17.839, 53.782 17, 32 17 C 19.827 17, 16.859 17.284, 15.571 18.571 M 18 22.100 C 18 23.283, 28.949 43, 29.605 43 C 29.822 43, 30 38.050, 30 32 L 30 21 24 21 C 20.303 21, 18 21.422, 18 22.100 M 34 32.200 C 34 38.495, 34.375 42.984, 34.857 42.450 C 36.755 40.346, 46 23.717, 46 22.406 C 46 21.354, 44.488 21, 40 21 L 34 21 34 32.200 M 0.349 32 C 0.349 36.675, 0.522 38.587, 0.732 36.250 C 0.943 33.912, 0.943 30.087, 0.732 27.750 C 0.522 25.412, 0.349 27.325, 0.349 32" stroke="none" fill="#058ccc" fill-rule="evenodd"/></svg>